<svg xmlns="http://www.w3.org/2000/svg" xmlns:xlink="http://www.w3.org/1999/xlink" width="110" height="110" viewBox="0 0 110 110"><defs><style>.a{clip-path:url(#a);}</style><clipPath id="a"><path d="M0,0H110V110H0Z" transform="translate(729 1399)"/></clipPath></defs><g class="a" transform="translate(-729 -1399)"><g transform="translate(729 1399)"><path d="M19.347,85.067a8.969,8.969,0,0,0-4.334,1.106A50.726,50.726,0,0,1,65.1,5.3a2.149,2.149,0,0,0,.851-4.212A55.409,55.409,0,0,0,55,0,55,55,0,0,0,11.836,89.085a9.027,9.027,0,1,0,7.511-4.018Zm3.342,12.365a4.726,4.726,0,1,1,1.385-3.342A4.694,4.694,0,0,1,22.689,97.432Zm0,0"/><path d="M98.162,20.912a9,9,0,1,0-3.176,2.915A50.726,50.726,0,0,1,45,104.717a2.149,2.149,0,1,0-.843,4.214A55.447,55.447,0,0,0,55,110,55,55,0,0,0,98.163,20.912Zm-10.851-1.66a4.728,4.728,0,1,1,3.342,1.384,4.7,4.7,0,0,1-3.342-1.384Zm0,0"/><path d="M46.134,91.953A2.149,2.149,0,0,0,48.283,94.1H61.716a2.148,2.148,0,0,0,2.148-2.148V87.788a33.644,33.644,0,0,0,8.063-3.342l2.941,2.941a2.148,2.148,0,0,0,3.039,0l9.5-9.5a2.149,2.149,0,0,0,0-3.038l-2.937-2.937a33.643,33.643,0,0,0,3.342-8.063h4.149A2.148,2.148,0,0,0,94.1,61.7V48.263a2.148,2.148,0,0,0-2.148-2.148h-4.15a33.649,33.649,0,0,0-3.341-8.062l2.921-2.921a2.149,2.149,0,0,0,0-3.04l-9.5-9.5a2.148,2.148,0,0,0-3.038,0l-2.917,2.918a33.644,33.644,0,0,0-8.063-3.342V18.047A2.148,2.148,0,0,0,61.716,15.9H48.283a2.149,2.149,0,0,0-2.148,2.148v4.127a33.615,33.615,0,0,0-8.062,3.341L35.154,22.6a2.149,2.149,0,0,0-3.038,0l-9.5,9.5a2.148,2.148,0,0,0,0,3.039l2.921,2.921a33.638,33.638,0,0,0-3.342,8.062H18.051A2.148,2.148,0,0,0,15.9,48.263L15.9,61.7a2.148,2.148,0,0,0,2.148,2.149h4.149a33.644,33.644,0,0,0,3.342,8.063L22.6,74.846a2.148,2.148,0,0,0,0,3.038l9.5,9.5a2.149,2.149,0,0,0,1.519.63h0a2.148,2.148,0,0,0,1.519-.629l2.94-2.941a33.672,33.672,0,0,0,8.063,3.342ZM38.913,79.928a2.149,2.149,0,0,0-2.686.285l-2.616,2.616-6.458-6.463,2.613-2.614a2.148,2.148,0,0,0,.285-2.685,29.407,29.407,0,0,1-4.069-9.822,2.149,2.149,0,0,0-2.1-1.7h-3.69l.005-9.137h3.685a2.148,2.148,0,0,0,2.1-1.7,29.409,29.409,0,0,1,4.069-9.821,2.148,2.148,0,0,0-.285-2.685l-2.6-2.6,6.463-6.458,2.594,2.595a2.15,2.15,0,0,0,2.686.285,29.4,29.4,0,0,1,9.821-4.069,2.15,2.15,0,0,0,1.7-2.1V20.2h9.137v3.668a2.148,2.148,0,0,0,1.7,2.1,29.42,29.42,0,0,1,9.821,4.069,2.147,2.147,0,0,0,2.685-.285l2.595-2.594,6.463,6.458-2.6,2.6a2.148,2.148,0,0,0-.285,2.686,29.427,29.427,0,0,1,4.069,9.821,2.148,2.148,0,0,0,2.1,1.7h3.692v9.137H86.116a2.149,2.149,0,0,0-2.1,1.7,29.4,29.4,0,0,1-4.069,9.821,2.149,2.149,0,0,0,.285,2.686l2.613,2.613-6.458,6.463-2.616-2.615a2.148,2.148,0,0,0-2.686-.285A29.427,29.427,0,0,1,61.265,84a2.148,2.148,0,0,0-1.7,2.1V89.8H50.431V86.1a2.15,2.15,0,0,0-1.7-2.1,29.409,29.409,0,0,1-9.821-4.069Zm0,0"/><path d="M72.752,55A17.752,17.752,0,1,0,55,72.752,17.772,17.772,0,0,0,72.752,55ZM41.544,55A13.455,13.455,0,1,1,55,68.455,13.47,13.47,0,0,1,41.544,55Zm0,0"/><path d="M74.782,8.125A2.15,2.15,0,1,0,73.264,7.5,2.164,2.164,0,0,0,74.782,8.125Zm0,0"/><path d="M35.311,101.913a2.149,2.149,0,1,0,1.519.629A2.166,2.166,0,0,0,35.311,101.913Zm0,0"/></g></g></svg>