<svg xmlns="http://www.w3.org/2000/svg" xmlns:xlink="http://www.w3.org/1999/xlink" width="92" height="92" viewBox="0 0 92 92"><defs><style>.a{fill:#ea3939;}.b{clip-path:url(#a);}</style><clipPath id="a"><rect class="a" width="92" height="92" transform="translate(1051 2082)"/></clipPath></defs><g class="b" transform="translate(-1051 -2082)"><g transform="translate(1050.999 2082)"><path d="M85.468,42.272H75.074a4.911,4.911,0,0,0-4.908,4.917v.533a4.913,4.913,0,0,0,4.912,4.921h10.39a4.925,4.925,0,0,0,4.92-4.921l-.005-.54A4.908,4.908,0,0,0,85.468,42.272Z"/><path d="M85.473,30H83.308V6.216A6.234,6.234,0,0,0,77.091,0H36.074a6.234,6.234,0,0,0-6.216,6.216V23.283c-8.273,4.677-16.806,9.563-16.825,9.574C8.4,34.764,1.615,40.915,1.615,55.441a35.057,35.057,0,0,0,.2,3.651c.038.339.08.664.126.991q.179,1.274.448,2.434c.064.276.114.563.184.827a23.955,23.955,0,0,0,.831,2.528c.158.4.328.755.5,1.125.184.39.369.773.567,1.132.23.432.46.848.712,1.243.06.092.126.176.188.269,5.982,9.043,17.018,9.083,17.018,9.083h7.466v7.063A6.233,6.233,0,0,0,36.074,92H77.09a6.234,6.234,0,0,0,6.217-6.212V77.174h.948v-.005h1.209a4.912,4.912,0,0,0,4.918-4.918l.005-.536a4.915,4.915,0,0,0-4.92-4.908H75.073a4.906,4.906,0,0,0-4.908,4.912v.545a4.917,4.917,0,0,0,4.912,4.915h3.9V80.5h-44.8V35.875c2.25-1.427,4.334-2.8,5.522-3.721,6.02-4.656,11.734-8.364,12.508-11.726,1.007-4.363-2.342-8.039-8.152-5.021-1.83.951-5.587,3.034-9.878,5.444v-11l44.8.007V30H76.3v.005h-1.22a4.918,4.918,0,0,0-4.921,4.92v.533a4.912,4.912,0,0,0,4.915,4.913h10.4a4.912,4.912,0,0,0,4.912-4.913v-.548A4.906,4.906,0,0,0,85.473,30Zm-28.9,52.682a3.109,3.109,0,1,1-3.1,3.109A3.107,3.107,0,0,1,56.577,82.687Zm6.569-76.7H50.021a.752.752,0,1,1,0-1.5H63.146a.752.752,0,0,1,0,1.5Z"/><path d="M85.468,54.539H75.074a4.921,4.921,0,0,0-4.915,4.918V60a4.912,4.912,0,0,0,4.915,4.915H85.465A4.917,4.917,0,0,0,90.384,60v-.538A4.915,4.915,0,0,0,85.468,54.539Z"/></g></g></svg>