<svg xmlns="http://www.w3.org/2000/svg" xmlns:xlink="http://www.w3.org/1999/xlink" width="110" height="110" viewBox="0 0 110 110"><defs><clipPath id="a"><rect width="110" height="110" transform="translate(1426 1399)"/></clipPath></defs><g transform="translate(-1426 -1399)" clip-path="url(#a)"><g transform="translate(1422.333 1395.329)"><path d="M111.833,62.333a1.833,1.833,0,0,0,1.833-1.833V41.25a5.5,5.5,0,0,0-5.5-5.5H94.05a1.833,1.833,0,0,1-1.676-1.087l-1.731-3.9A5.5,5.5,0,0,0,85.617,27.5H72.05a5.5,5.5,0,0,0-5.027,3.268l-1.73,3.893a1.833,1.833,0,0,1-1.676,1.089H49.5a5.5,5.5,0,0,0-5.5,5.5v.917H5.5A1.833,1.833,0,0,0,3.667,44V80.667A1.833,1.833,0,0,0,5.5,82.5H44.093A5.5,5.5,0,0,0,49.5,87.083H88v8.25H69.667V93.5a1.833,1.833,0,0,0-1.833-1.833H49.5A1.834,1.834,0,0,0,48.447,92l-5.085,3.564a5.5,5.5,0,0,0-6.473.937l-7.777,7.777a5.5,5.5,0,0,0,0,7.779h0a5.5,5.5,0,0,0,7.777,0l7.779-7.779a5.5,5.5,0,0,0,1.192-5.986l4.218-2.957H66v1.833A1.833,1.833,0,0,0,67.833,99H71.5v3.667H62.333A1.833,1.833,0,0,0,60.5,104.5v7.333a1.833,1.833,0,1,0,3.667,0v-5.5H93.5v5.5a1.833,1.833,0,0,0,3.667,0V104.5a1.833,1.833,0,0,0-1.833-1.833H86.167V99h3.667a1.833,1.833,0,0,0,1.833-1.833V87.083h16.5a5.5,5.5,0,0,0,5.5-5.5V67.833a1.833,1.833,0,0,0-3.667,0v13.75a1.833,1.833,0,0,1-1.833,1.833H49.5a1.833,1.833,0,0,1-1.833-1.833V41.25A1.833,1.833,0,0,1,49.5,39.417H63.617a5.5,5.5,0,0,0,5.027-3.268l1.73-3.893a1.833,1.833,0,0,1,1.676-1.089H85.617a1.833,1.833,0,0,1,1.676,1.087l1.731,3.9a5.5,5.5,0,0,0,5.027,3.265h14.117A1.833,1.833,0,0,1,110,41.25V60.5A1.833,1.833,0,0,0,111.833,62.333ZM42.075,101.684,34.3,109.463a1.833,1.833,0,0,1-2.592,0h0a1.833,1.833,0,0,1,0-2.592l7.777-7.779a1.834,1.834,0,0,1,2.594,2.592Zm40.425.983H75.167V99H82.5ZM7.333,45.833H44v33H16.5v-5.5A1.833,1.833,0,0,1,18.333,71.5H33a1.833,1.833,0,0,1,1.833,1.833,1.833,1.833,0,1,0,3.667,0,5.5,5.5,0,0,0-5.5-5.5h-.048a9.071,9.071,0,0,0,1.881-5.5v-5.5A7.333,7.333,0,0,0,27.5,49.5H14.667a1.833,1.833,0,0,0-1.833,1.833V55A5.5,5.5,0,0,0,16.5,60.163v2.171a9.071,9.071,0,0,0,1.881,5.5h-.048a5.5,5.5,0,0,0-5.5,5.5v5.5h-5.5Zm12.833,16.5V60.5h11v1.833a5.5,5.5,0,0,1-11,0ZM16.5,55V53.167h11a3.667,3.667,0,0,1,3.667,3.667H18.333A1.833,1.833,0,0,1,16.5,55Z"/><path d="M62.333,60.5a16.5,16.5,0,1,0,30.7-8.371,1.834,1.834,0,1,0-3.159,1.865,12.865,12.865,0,1,1-4.538-4.539A1.833,1.833,0,1,0,87.2,46.3,16.478,16.478,0,0,0,62.333,60.5Z"/><path d="M78.833,51.333a9.167,9.167,0,1,0,6.481,2.684A9.167,9.167,0,0,0,78.833,51.333ZM82.72,59.2a1.875,1.875,0,0,1-2.59,0,1.833,1.833,0,0,1,1.3-3.13,1.813,1.813,0,0,1,1.3.535,1.833,1.833,0,0,1,0,2.594ZM74.945,64.39a5.456,5.456,0,0,1,1.538-8.844,5.465,5.465,0,0,0,7.293,7.315,5.472,5.472,0,0,1-1.054,1.529,5.636,5.636,0,0,1-7.777,0Z"/><path d="M82.5,40.333a1.833,1.833,0,0,0,0-3.667H75.167a1.833,1.833,0,1,0,0,3.667Z"/><path d="M99,42.167a3.667,3.667,0,0,0-3.667,3.667V49.5A3.667,3.667,0,0,0,99,53.167h3.667a3.667,3.667,0,0,0,3.667-3.667V45.833a3.667,3.667,0,0,0-3.667-3.667ZM99,49.5V45.833h3.667V49.5Z"/><path d="M60.5,47.667a1.833,1.833,0,0,0-1.833-1.833H51.333a1.833,1.833,0,1,0,0,3.667h7.333A1.833,1.833,0,0,0,60.5,47.667Z"/><circle cx="1.833" cy="1.833" r="1.833" transform="translate(58.667 73.333)"/><path d="M74.945,19.945a1.833,1.833,0,1,0,2.593,2.593,1.833,1.833,0,0,1,2.592,0,1.833,1.833,0,1,0,2.593-2.593,5.5,5.5,0,0,0-7.777,0Z"/><path d="M86.61,17.888a1.833,1.833,0,0,0,1.3-3.129,12.833,12.833,0,0,0-18.15,0,1.833,1.833,0,1,0,2.593,2.593,9.167,9.167,0,0,1,12.961,0,1.82,1.82,0,0,0,1.3.537Z"/><path d="M67.166,12.166a16.518,16.518,0,0,1,23.335,0,1.833,1.833,0,1,0,2.593-2.593,20.189,20.189,0,0,0-28.52,0,1.833,1.833,0,1,0,2.593,2.593Z"/></g></g></svg>