<svg xmlns="http://www.w3.org/2000/svg" xmlns:xlink="http://www.w3.org/1999/xlink" width="92" height="92" viewBox="0 0 92 92"><defs><style>.a{fill:#eac641;}.b{clip-path:url(#a);}</style><clipPath id="a"><rect class="a" width="92" height="92" transform="translate(624 1485)"/></clipPath></defs><g class="b" transform="translate(-624 -1485)"><g transform="translate(624 1485)"><path d="M38.354,6.151A32.188,32.188,0,1,0,70.542,38.339,32.188,32.188,0,0,0,38.354,6.151Zm0,3.066A29.091,29.091,0,0,1,62.136,21.586L58.3,25.418a6.049,6.049,0,0,0-3.09-.874,6.131,6.131,0,0,0-6.131,6.131,6.049,6.049,0,0,0,.869,3.095L39.916,43.806a5.944,5.944,0,0,0-6.189,0l-6.971-6.971a6.049,6.049,0,0,0,.869-3.095A6.119,6.119,0,0,0,15.58,32.208H9.894A29.164,29.164,0,0,1,38.354,9.217ZM58.279,30.675a3.066,3.066,0,1,1-3.066-3.066A3.065,3.065,0,0,1,58.279,30.675ZM39.886,49.068A3.066,3.066,0,1,1,36.821,46,3.065,3.065,0,0,1,39.886,49.068ZM24.559,33.741a3.066,3.066,0,1,1-3.066-3.066A3.065,3.065,0,0,1,24.559,33.741ZM52.5,63.8A29.116,29.116,0,0,1,9.4,35.273H15.58a6.131,6.131,0,0,0,5.913,4.6A6.049,6.049,0,0,0,24.588,39l6.971,6.971a6.049,6.049,0,0,0-.869,3.095,6.131,6.131,0,0,0,12.262,0,6.049,6.049,0,0,0-.869-3.095L52.119,35.937a6.049,6.049,0,0,0,3.095.869,6.131,6.131,0,0,0,6.131-6.131,6.049,6.049,0,0,0-.869-3.095l3.341-3.34A29.1,29.1,0,0,1,52.5,63.8Z"/><path d="M76.673,15.348a6.131,6.131,0,0,0,5.913-4.6H92V7.684H82.586A6.118,6.118,0,0,0,70.542,9.217a6.049,6.049,0,0,0,.869,3.095L68.718,15A38.319,38.319,0,1,0,59.15,70.5l4.626,4.626,2.167,2.167L78.282,89.631A8.035,8.035,0,0,0,89.646,78.267L77.307,65.929,75.14,63.761l-4.626-4.626a38.192,38.192,0,0,0,0-41.593l3.066-3.066A6.051,6.051,0,0,0,76.673,15.348Zm0-9.2a3.066,3.066,0,1,1-3.066,3.066A3.065,3.065,0,0,1,76.673,6.151ZM87.478,80.435a4.971,4.971,0,1,1-6.949,7.109l-.08-.08L68.111,75.125,75.14,68.1ZM72.972,65.929l-7.029,7.029L61.7,68.715c.216-.166.418-.348.631-.518s.46-.374.688-.566c.336-.282.667-.567.992-.86.167-.153.326-.307.49-.46q.943-.883,1.826-1.826c.153-.164.307-.323.46-.49.293-.325.578-.656.86-.992q.288-.34.566-.688c.169-.212.351-.414.517-.63Zm-5.944-7.12c-.483.674-.981,1.335-1.507,1.971-.153.185-.317.365-.475.547q-.7.818-1.453,1.588-.326.337-.664.664-.766.75-1.588,1.453c-.182.153-.362.32-.547.475-.636.526-1.3,1.024-1.971,1.507a35.308,35.308,0,1,1,8.2-8.2Z"/></g></g></svg>