<?xml version="1.0" standalone="no"?>
<!DOCTYPE svg PUBLIC "-//W3C//DTD SVG 20010904//EN"
 "http://www.w3.org/TR/2001/REC-SVG-20010904/DTD/svg10.dtd">
<svg version="1.0" xmlns="http://www.w3.org/2000/svg"
 width="1155.000000pt" height="1280.000000pt" viewBox="0 0 1155.000000 1280.000000"
 preserveAspectRatio="xMidYMid meet">
<metadata>
Created by potrace 1.15, written by Peter Selinger 2001-2017
</metadata>
<g transform="translate(0.000000,1280.000000) scale(0.100000,-0.100000)"
fill="#000000" stroke="none">
<path d="M5390 12789 c0 -5 19 -9 42 -9 49 0 47 5 -4 13 -21 3 -38 2 -38 -4z"/>
<path d="M6201 12461 c34 -62 49 -81 65 -81 28 0 37 33 24 82 -12 41 -41 63
-95 74 l-38 7 44 -82z"/>
<path d="M5985 12479 c-12 -6 -27 -20 -34 -31 -12 -20 -10 -24 30 -57 79 -64
210 -195 256 -256 119 -157 144 -290 71 -371 -19 -22 -19 -22 2 -65 65 -129
166 -246 246 -287 l39 -20 113 109 c61 60 112 106 112 104 0 -3 -49 -78 -110
-165 l-110 -160 129 -127 c127 -127 252 -284 411 -518 79 -116 124 -155 149
-130 29 29 14 77 -85 272 -54 106 -95 195 -92 198 8 8 66 -83 119 -185 52
-102 108 -161 172 -183 26 -9 47 -14 47 -12 0 2 -22 41 -50 87 -55 91 -59 107
-32 131 16 15 22 14 71 -9 l54 -24 -7 42 -7 43 34 -33 c29 -28 41 -33 73 -30
31 2 39 -1 42 -16 5 -22 -13 -36 -46 -36 -26 0 -82 -50 -82 -73 0 -9 20 -18
55 -26 30 -7 55 -16 55 -20 0 -4 -25 -39 -55 -78 -30 -39 -55 -76 -55 -82 0
-5 18 -51 40 -102 l40 -92 -68 70 c-66 69 -137 110 -176 101 -23 -5 15 -81
110 -219 60 -87 92 -147 144 -273 37 -88 79 -185 94 -214 53 -105 146 -181
221 -182 l29 0 -44 -45 -44 -45 19 -77 c49 -211 101 -281 207 -284 33 0 33 0
8 -12 -131 -59 -153 -72 -171 -101 -10 -17 -19 -39 -19 -49 0 -28 45 -67 79
-67 28 0 29 -2 40 -66 7 -37 10 -68 7 -71 -2 -3 -42 -10 -88 -17 l-83 -11 -12
-130 c-28 -293 -95 -501 -193 -596 -52 -49 -88 -65 -305 -126 -104 -30 -216
-69 -248 -86 -222 -118 -207 -373 28 -460 39 -14 114 -37 167 -51 126 -33 155
-49 258 -140 114 -101 152 -120 314 -155 82 -18 158 -42 189 -58 68 -36 187
-155 216 -216 73 -152 68 -327 -14 -504 -50 -108 -110 -187 -280 -368 -233
-247 -254 -281 -199 -324 30 -24 74 -37 155 -46 52 -6 56 -9 68 -41 18 -50 40
-58 110 -39 88 22 115 20 150 -15 28 -28 43 -74 53 -160 3 -24 6 -25 63 -22
85 3 167 26 264 73 226 107 398 282 713 724 88 123 193 253 298 370 238 263
269 308 315 452 49 152 60 174 145 274 39 46 75 91 80 100 10 18 -4 22 -139
35 l-74 7 7 83 c17 225 151 380 381 439 122 32 373 28 436 -6 13 -7 19 -29 24
-94 4 -47 11 -85 15 -83 4 2 44 47 89 100 l82 98 -28 42 c-27 40 -28 47 -26
147 1 58 5 126 10 149 l8 44 170 91 170 91 0 155 c1 130 4 170 23 241 34 124
96 262 163 364 32 49 59 95 59 101 0 23 -137 101 -238 136 -29 10 -91 23 -136
29 -150 20 -316 -25 -438 -118 -27 -20 -83 -80 -124 -133 -41 -54 -92 -109
-114 -124 -122 -84 -336 -88 -545 -10 -33 13 -125 53 -205 90 -282 131 -346
153 -490 171 -71 8 -140 38 -176 75 -15 16 -25 29 -22 29 3 0 51 -20 106 -44
l102 -45 -17 32 c-9 18 -50 75 -91 127 -108 136 -119 168 -142 401 -6 59 -18
131 -26 160 -18 58 -68 139 -87 139 -7 0 -1 9 12 19 l25 19 -35 35 c-34 34
-101 57 -164 57 -18 0 -25 7 -30 33 -14 64 -52 114 -107 141 -60 28 -168 46
-168 27 0 -18 36 -85 63 -117 51 -61 60 -92 52 -174 -13 -119 -10 -136 35
-209 51 -85 61 -120 49 -166 -11 -39 -33 -55 -78 -55 -38 0 -65 34 -81 103
-28 119 -50 139 -178 161 -92 16 -157 47 -241 114 -178 144 -222 309 -113 433
l30 34 -24 57 c-64 152 -158 264 -245 291 -13 4 -18 22 -21 71 -5 80 -27 115
-86 136 -23 8 -41 19 -39 25 2 5 30 14 63 19 32 5 60 10 62 11 1 1 -6 23 -17
48 l-20 46 37 11 c20 5 45 10 55 10 21 0 19 10 -20 104 -58 139 -146 235 -241
262 -47 14 -64 15 -111 4 l-55 -12 -43 48 c-23 27 -43 52 -43 57 0 4 20 7 45
7 50 0 51 0 31 39 -46 89 -184 161 -423 221 -111 27 -113 27 -113 -15 l0 -35
-60 0 c-33 0 -60 3 -60 8 0 4 18 20 40 36 22 17 40 33 40 36 0 16 -47 75 -62
78 -23 4 -71 -40 -114 -108 -40 -62 -54 -73 -54 -42 0 9 -23 55 -50 101 -160
269 -376 464 -465 420z m2895 -2393 c0 -2 -16 -16 -35 -30 -23 -18 -35 -22
-35 -13 0 7 15 21 33 30 37 18 37 18 37 13z"/>
<path d="M7712 11108 l3 -43 55 -3 55 -2 -50 44 c-27 25 -54 45 -58 46 -5 0
-7 -19 -5 -42z"/>
<path d="M8494 10850 c-31 -12 -64 -59 -64 -90 0 -42 59 -119 136 -177 38 -29
74 -53 81 -53 16 0 17 55 2 136 -15 87 -38 142 -71 169 -31 26 -49 29 -84 15z"/>
<path d="M8186 10718 c26 -46 66 -59 119 -39 15 6 6 12 -45 29 -74 25 -84 27
-74 10z"/>
<path d="M8010 10515 c-19 -20 -22 -30 -14 -43 12 -19 84 -30 84 -13 0 15 -33
81 -40 81 -4 0 -17 -11 -30 -25z"/>
<path d="M8878 10348 c-21 -6 -38 -16 -38 -23 0 -22 60 -65 91 -65 16 0 29 2
29 4 0 8 -39 96 -42 95 -2 -1 -20 -6 -40 -11z"/>
<path d="M8220 10158 c-41 -5 -76 -11 -78 -12 -3 -4 126 -130 138 -134 4 -2
12 10 18 25 5 15 19 52 31 81 l21 52 -28 -1 c-15 -1 -61 -6 -102 -11z"/>
<path d="M9474 9286 c-3 -8 -4 -27 -2 -43 2 -22 9 -29 31 -31 16 -2 35 2 43 9
17 14 18 51 2 67 -17 17 -67 15 -74 -2z"/>
<path d="M5814 6293 c4 -16 9 -35 12 -44 3 -13 -6 -17 -48 -22 -130 -15 -347
-167 -404 -283 -27 -55 -27 -56 -19 -187 12 -186 9 -231 -19 -293 -76 -166
-251 -335 -389 -374 -109 -31 -144 -49 -186 -95 -50 -55 -84 -129 -116 -255
-73 -295 -167 -467 -373 -681 -127 -132 -203 -184 -358 -245 -220 -86 -260
-112 -536 -352 -267 -231 -318 -263 -560 -342 -176 -58 -219 -81 -375 -196
-180 -132 -196 -137 -393 -144 -199 -6 -197 -5 -359 -162 -105 -102 -110 -108
-101 -137 8 -30 -1 -41 -36 -41 -46 0 -134 -60 -243 -164 -64 -62 -159 -141
-211 -176 -91 -63 -145 -121 -152 -165 -2 -14 -22 -26 -73 -43 -80 -28 -111
-47 -178 -111 -114 -108 -129 -241 -35 -299 18 -11 55 -26 81 -33 69 -17 54
-34 -31 -34 -79 0 -79 -1 -46 -67 l14 -26 -176 58 c-174 59 -175 59 -183 37
-5 -12 -27 -75 -51 -141 -23 -65 -44 -124 -46 -131 -5 -11 53 -4 244 30 51 9
39 -16 -24 -49 -90 -47 -110 -101 -44 -122 19 -6 36 -16 38 -23 2 -6 2 -11 0
-11 -56 -4 -430 -49 -433 -52 -5 -5 14 -220 20 -227 2 -1 34 7 70 19 36 12 68
20 71 17 3 -2 -4 -28 -15 -56 l-19 -51 64 0 c35 0 64 -2 64 -4 0 -2 -7 -20
-15 -40 -21 -49 -5 -84 49 -110 33 -16 74 -20 270 -27 252 -9 253 -9 371 48
123 59 186 42 271 -73 74 -100 94 -114 164 -114 31 0 79 7 106 15 74 22 136
18 256 -17 101 -31 108 -35 106 -57 -2 -19 -15 -28 -63 -46 -49 -19 -61 -27
-63 -47 -3 -23 2 -27 62 -42 82 -20 248 -21 376 -1 128 20 126 20 147 -22 50
-102 146 -106 492 -22 233 57 413 142 596 279 138 105 227 191 285 277 76 115
103 130 278 158 111 18 152 34 180 69 21 27 38 83 29 92 -3 3 -35 -4 -72 -15
-37 -12 -69 -21 -71 -21 -6 0 55 138 120 275 108 225 211 380 337 506 l66 67
6 143 c14 304 66 479 175 581 57 53 89 71 244 134 62 26 201 88 308 139 184
87 272 122 364 142 35 7 41 13 48 43 5 19 21 46 35 59 41 36 89 25 271 -63 87
-42 166 -76 175 -76 14 0 17 11 17 71 0 90 17 88 44 -4 24 -83 40 -86 95 -17
73 92 62 157 -34 211 -43 24 -164 63 -257 83 l-28 6 0 115 c0 137 20 202 80
264 45 46 83 67 222 121 188 74 239 122 340 325 96 191 133 240 393 504 132
135 266 278 297 316 62 78 158 215 158 226 0 4 -29 23 -64 43 l-64 36 -41 127
-41 128 48 45 c26 25 99 93 162 152 141 132 140 146 -7 98 -54 -18 -105 -35
-113 -38 -8 -3 8 12 35 33 28 21 69 54 93 74 l42 35 -32 18 c-80 42 -236 13
-377 -71 -95 -56 -100 -64 -64 -100 16 -16 49 -35 73 -42 l43 -13 -69 -23
c-37 -13 -70 -23 -73 -23 -4 0 -6 20 -6 45 l0 46 -122 70 -121 71 -29 -18
c-15 -10 -71 -48 -123 -85 -52 -37 -123 -81 -157 -98 -99 -49 -141 -40 -176
37 -20 43 -22 62 -20 234 2 216 10 202 -113 187 -92 -12 -127 -2 -173 45 -41
42 -53 111 -27 151 30 46 70 58 165 51 47 -4 90 -8 95 -9 6 -1 12 8 14 21 l3
22 -221 0 -222 0 6 -27z"/>
<path d="M7097 6099 c-20 -5 -48 -16 -61 -24 -27 -18 -71 -95 -81 -144 l-7
-34 38 8 c96 18 168 83 195 177 7 26 6 28 -19 27 -15 -1 -44 -5 -65 -10z"/>
<path d="M6908 5848 c-86 -38 -53 -88 58 -88 35 0 51 7 80 32 l37 33 -49 22
c-60 28 -67 28 -126 1z"/>
<path d="M410 1586 c0 -7 -3 -34 -6 -58 l-6 -46 53 -17 c30 -10 59 -20 64 -22
7 -2 7 23 1 77 l-10 80 -48 0 c-34 0 -48 -4 -48 -14z"/>
<path d="M113 1090 c-33 -20 -50 -44 -63 -91 l-9 -29 134 0 134 0 -9 29 c-19
68 -67 111 -125 111 -16 0 -44 -9 -62 -20z"/>
</g>
</svg>
