<svg xmlns="http://www.w3.org/2000/svg" xmlns:xlink="http://www.w3.org/1999/xlink" width="92" height="92" viewBox="0 0 92 92"><defs><style>.a{fill:#ea3939;}.b{clip-path:url(#a);}</style><clipPath id="a"><rect class="a" width="92" height="92" transform="translate(326 2082)"/></clipPath></defs><g class="b" transform="translate(-326 -2082)"><g transform="translate(326 2082)"><path d="M40.026,54.488l-.927,5.4a1.413,1.413,0,0,0,2.05,1.49L46,58.828l4.852,2.55a1.413,1.413,0,0,0,2.049-1.49l-.927-5.4L55.9,50.662a1.413,1.413,0,0,0-.783-2.41l-5.424-.788-2.426-4.915a1.413,1.413,0,0,0-2.533,0l-2.426,4.915-5.424.788a1.413,1.413,0,0,0-.783,2.41Z"/><path d="M17.679,54.488l-.927,5.4a1.413,1.413,0,0,0,2.05,1.49l4.851-2.55,4.852,2.55a1.413,1.413,0,0,0,2.05-1.49l-.927-5.4,3.925-3.826a1.413,1.413,0,0,0-.783-2.41l-5.424-.788L24.92,42.549a1.413,1.413,0,0,0-2.533,0l-2.426,4.915-5.423.788a1.413,1.413,0,0,0-.783,2.41Z"/><path d="M62.372,54.488l-.927,5.4a1.413,1.413,0,0,0,2.05,1.49l4.852-2.55,4.851,2.55a1.413,1.413,0,0,0,2.05-1.49l-.927-5.4,3.925-3.826a1.413,1.413,0,0,0-.783-2.41l-5.424-.788-2.426-4.915a1.413,1.413,0,0,0-2.533,0l-2.426,4.915-5.424.788a1.413,1.413,0,0,0-.783,2.41Z"/><path d="M87.055,2.391H4.945A4.951,4.951,0,0,0,0,7.336V84.664a4.951,4.951,0,0,0,4.945,4.945h82.11A4.951,4.951,0,0,0,92,84.664V7.336A4.95,4.95,0,0,0,87.055,2.391ZM77.271,9.973a4.1,4.1,0,1,1-4.1,4.1A4.1,4.1,0,0,1,77.271,9.973Zm-13.894,0a4.1,4.1,0,1,1-4.1,4.1A4.1,4.1,0,0,1,63.377,9.973ZM12.545,11.951h16.53a2.119,2.119,0,1,1,0,4.238H12.545a2.119,2.119,0,0,1,0-4.238Zm71.6,69.089a.646.646,0,0,1-.645.645H8.5a.646.646,0,0,1-.645-.645V27.786H84.146Z"/></g></g></svg>