<svg xmlns="http://www.w3.org/2000/svg" xmlns:xlink="http://www.w3.org/1999/xlink" width="110" height="110" viewBox="0 0 110 110"><defs><clipPath id="a"><rect width="110" height="110" transform="translate(381 1399)"/></clipPath></defs><g transform="translate(-381 -1399)" clip-path="url(#a)"><g transform="translate(381 1399)"><path d="M78.476,0H13.466A12.657,12.657,0,0,0,.826,12.641V77.5A12.657,12.657,0,0,0,13.466,90.141H33.33V86.529H13.466A9.04,9.04,0,0,1,4.437,77.5V46.951h11.6a1.943,1.943,0,0,0,1.654-2.68,7.223,7.223,0,1,1,13.226,0,1.873,1.873,0,0,0,1.654,2.68h11.6V57.786a10.57,10.57,0,0,0-1.806-.15A10.835,10.835,0,0,0,38.025,78.4l1.445-3.308a7.223,7.223,0,0,1,2.889-13.847,7.135,7.135,0,0,1,2.889.61A1.806,1.806,0,0,0,47.777,60.2V46.951h9.183a10.571,10.571,0,0,0-.153,1.806,10.866,10.866,0,0,0,8.668,10.618l.722-3.538a7.247,7.247,0,0,1-5.779-7.081,7.135,7.135,0,0,1,.61-2.889,1.806,1.806,0,0,0-1.654-2.528h-11.6V34.157a10.571,10.571,0,0,0,1.806.153,10.835,10.835,0,0,0,0-21.67,10.571,10.571,0,0,0-1.806.153V3.612h30.7A9.04,9.04,0,0,1,87.5,12.641v30.7h-11.6a1.806,1.806,0,0,0-1.654,2.528,7.135,7.135,0,0,1,.61,2.889h3.612a10.573,10.573,0,0,0-.153-1.806H89.31a1.806,1.806,0,0,0,1.806-1.806v-32.5A12.657,12.657,0,0,0,78.476,0ZM49.583,16.252a7.223,7.223,0,1,1,0,14.446,7.135,7.135,0,0,1-2.889-.61,1.806,1.806,0,0,0-2.528,1.654V43.19H35a10.545,10.545,0,0,0,.141-1.656v-.15a10.835,10.835,0,1,0-21.67,0v.15a10.544,10.544,0,0,0,.141,1.656H4.437V12.641a9.04,9.04,0,0,1,9.029-9.029h30.7v11.6a1.806,1.806,0,0,0,2.528,1.654A7.135,7.135,0,0,1,49.583,16.252Z"/><path d="M105.312,77.617,90.13,67.164,84.3,51.585a1.806,1.806,0,0,0-2.322-1.062c-.033.012-.067.026-.1.04L70.14,55.754a1.806,1.806,0,0,0-.957,2.3c.2.506.377.888.571,1.286a13.773,13.773,0,0,1,.59,1.356,7.226,7.226,0,1,1-13.966,2.171,1.806,1.806,0,0,0-2.441-1.784L41.39,65.806a1.806,1.806,0,0,0-1.055,2.322l4.5,12.032a10.178,10.178,0,0,0-1.752.484A10.858,10.858,0,1,0,52.342,100.2l3.229,8.625a1.806,1.806,0,0,0,2.325,1.058h0l17.892-6.741a9.7,9.7,0,0,0,5.719,5.107l1.141-3.431a6.089,6.089,0,0,1-3.453-2.951l5.445-2.05A12.6,12.6,0,0,0,96.534,108.2v-3.612A9.085,9.085,0,0,1,87.5,95.558a1.806,1.806,0,0,0-.529-1.277l-6.288-6.288a2.678,2.678,0,0,1-.247-3.483,2.629,2.629,0,0,1,1.941-1.058,2.59,2.59,0,0,1,2.073.775L97.063,96.835l2.553-2.553-3.731-3.731a12.6,12.6,0,0,0-.161-8.442L92.341,73.07l10.913,7.514a5.428,5.428,0,0,1,2.31,4.439v23.326h3.612V85.023A9.045,9.045,0,0,0,105.312,77.617ZM92.342,83.374a9.05,9.05,0,0,1,.527,4.159l-5.862-5.86a6.275,6.275,0,0,0-8.986,8.762c.037.038.074.075.112.112l5.712,5.712-25.52,9.612-3.442-9.2a1.806,1.806,0,0,0-1.3-1.129,1.83,1.83,0,0,0-.392-.043,1.806,1.806,0,0,0-1.264.515,7.223,7.223,0,1,1-7.563-11.989,6.95,6.95,0,0,1,1.786-.4,6.411,6.411,0,0,1,1.132-.038,1.806,1.806,0,0,0,1.786-2.436L44.355,68.556l8.6-3.238a10.838,10.838,0,1,0,20.779-5.883c-.166-.444-.316-.8-.46-1.111l8.307-3.678Z"/></g></g></svg>