<svg xmlns="http://www.w3.org/2000/svg" xmlns:xlink="http://www.w3.org/1999/xlink" width="92" height="92" viewBox="0 0 92 92"><defs><style>.a{fill:#eac641;}.b{clip-path:url(#a);}</style><clipPath id="a"><rect class="a" width="92" height="92" transform="translate(912 1485)"/></clipPath></defs><g class="b" transform="translate(-912 -1485)"><g transform="translate(912 1485)"><path d="M8.9,83.1h2.968v2.968H8.9Zm0,0"/><path d="M14.839,83.1h2.968v2.968H14.839Zm0,0"/><path d="M20.774,83.1h2.968v2.968H20.774Zm0,0"/><path d="M71.226,83.1H83.1v2.968H71.226Zm0,0"/><path d="M89.032,77.161V28.194a7.428,7.428,0,0,0-7.419-7.419H77.161a20.774,20.774,0,0,0-41.548,0H10.387a7.428,7.428,0,0,0-7.419,7.419V77.161H0v7.419A7.428,7.428,0,0,0,7.419,92H84.581A7.428,7.428,0,0,0,92,84.581V77.161ZM81.613,23.742a4.457,4.457,0,0,1,4.452,4.452V77.161H83.1V29.677a2.971,2.971,0,0,0-2.968-2.968H76.286a20.629,20.629,0,0,0,.638-2.968Zm-42.17-8.421,15.749,6.563L60.585,38.06A17.779,17.779,0,0,1,39.443,15.321ZM63.4,37.134l-5.32-15.959L69.97,9.289A17.773,17.773,0,0,1,63.4,37.134ZM56.387,2.968A17.724,17.724,0,0,1,67.874,7.19L56.041,19.022,40.593,12.586A17.81,17.81,0,0,1,56.387,2.968ZM5.935,28.194a4.457,4.457,0,0,1,4.452-4.452H35.851a20.434,20.434,0,0,0,.638,2.968H11.871A2.971,2.971,0,0,0,8.9,29.678V77.161H5.935Zm83.1,56.387a4.457,4.457,0,0,1-4.452,4.452H7.419a4.457,4.457,0,0,1-4.452-4.452V80.129H33.538A11.53,11.53,0,0,0,41.295,83.1h9.412a11.53,11.53,0,0,0,7.756-2.968h18.7V77.161h-19.9l-.435.435a8.59,8.59,0,0,1-6.117,2.533H41.293A8.593,8.593,0,0,1,35.177,77.6l-.433-.435H11.871V29.678H37.646a20.729,20.729,0,0,0,37.482,0h5V80.129h8.9Zm0,0"/><path d="M72.71,62.323a4.426,4.426,0,0,0-2.465.749L65.068,59.19a4.384,4.384,0,0,0,.222-1.319,4.452,4.452,0,0,0-8.9,0,4.406,4.406,0,0,0,.262,1.451l-8.311,6.649a4.363,4.363,0,0,0-4.994.218l-6.4-4.266a4.354,4.354,0,0,0,.15-1.085,4.452,4.452,0,1,0-8.9,0,4.354,4.354,0,0,0,.15,1.085l-6.4,4.266a4.4,4.4,0,0,0-2.655-.9,4.452,4.452,0,1,0,4.452,4.452,4.354,4.354,0,0,0-.15-1.085l6.4-4.266a4.369,4.369,0,0,0,5.309,0l6.4,4.266a4.363,4.363,0,0,0-.15,1.085,4.452,4.452,0,1,0,8.9,0,4.406,4.406,0,0,0-.262-1.451L58.5,61.642a4.394,4.394,0,0,0,4.8-.068l5.177,3.881a4.384,4.384,0,0,0-.222,1.319,4.452,4.452,0,1,0,4.452-4.452Zm-53.419,8.9a1.484,1.484,0,1,1,1.484-1.484A1.487,1.487,0,0,1,19.29,71.226Zm13.355-8.9a1.484,1.484,0,1,1,1.484-1.484A1.487,1.487,0,0,1,32.645,62.323ZM46,71.226a1.484,1.484,0,1,1,1.484-1.484A1.487,1.487,0,0,1,46,71.226ZM60.839,59.355a1.484,1.484,0,1,1,1.484-1.484A1.487,1.487,0,0,1,60.839,59.355Zm11.871,8.9a1.484,1.484,0,1,1,1.484-1.484A1.487,1.487,0,0,1,72.71,68.258Zm0,0"/><path d="M38.581,32.645H14.839V53.419H38.581ZM35.613,50.452H17.806V35.613H35.613Zm0,0"/><path d="M20.774,38.581H32.645v2.968H20.774Zm0,0"/><path d="M20.774,44.516H32.645v2.968H20.774Zm0,0"/><path d="M41.548,47.484h2.968v2.968H41.548Zm0,0"/><path d="M47.484,47.484H77.161v2.968H47.484Zm0,0"/></g></g></svg>