<svg xmlns="http://www.w3.org/2000/svg" xmlns:xlink="http://www.w3.org/1999/xlink" width="110" height="110" viewBox="0 0 110 110"><defs><clipPath id="a"><rect width="110" height="110" transform="translate(1078 1399)"/></clipPath></defs><g transform="translate(-1078 -1399)" clip-path="url(#a)"><g transform="translate(1078 1399)"><path d="M81.615,28.158A11.072,11.072,0,1,0,92.687,39.23,11.085,11.085,0,0,0,81.615,28.158Zm0,17.848A6.776,6.776,0,1,1,88.39,39.23,6.783,6.783,0,0,1,81.615,46.006Z"/><path d="M81.69,96.933a2.12,2.12,0,0,0-.2-.372,2.088,2.088,0,0,0-.593-.593,2.121,2.121,0,0,0-.372-.2,2.018,2.018,0,0,0-.4-.122,2.116,2.116,0,0,0-.838,0,2.018,2.018,0,0,0-.4.122,2.121,2.121,0,0,0-.372.2,2.088,2.088,0,0,0-.593.593,2.12,2.12,0,0,0-.2.372,2.018,2.018,0,0,0-.122.4,2.064,2.064,0,0,0,0,.838,2.018,2.018,0,0,0,.122.4,2.121,2.121,0,0,0,.2.372,2.057,2.057,0,0,0,.266.327c.049.049.1.1.155.141a2,2,0,0,0,.171.126,2.121,2.121,0,0,0,.372.2,2.018,2.018,0,0,0,.4.122,2.064,2.064,0,0,0,.838,0,2.018,2.018,0,0,0,.4-.122,2.12,2.12,0,0,0,.372-.2,2.05,2.05,0,0,0,.171-.126q.082-.067.155-.141a2.056,2.056,0,0,0,.266-.327,2.12,2.12,0,0,0,.2-.372,2.175,2.175,0,0,0,.125-.4,2.17,2.17,0,0,0,0-.838A2.166,2.166,0,0,0,81.69,96.933Z"/><path d="M47.878,11.913a2.285,2.285,0,0,0-.2-.372,2.157,2.157,0,0,0-.266-.327,2.056,2.056,0,0,0-.327-.266,2.12,2.12,0,0,0-.372-.2,2.17,2.17,0,0,0-.4-.122,2.116,2.116,0,0,0-.838,0,2.242,2.242,0,0,0-.4.122,2.18,2.18,0,0,0-.37.2,2.056,2.056,0,0,0-.327.266,2.31,2.31,0,0,0-.269.327,2.273,2.273,0,0,0-.2.372,2.018,2.018,0,0,0-.122.4,2.074,2.074,0,0,0,0,.84,2.018,2.018,0,0,0,.122.4,2.273,2.273,0,0,0,.2.372,2.31,2.31,0,0,0,.269.327,2.056,2.056,0,0,0,.327.266,2.18,2.18,0,0,0,.37.2,2.242,2.242,0,0,0,.4.122,2.064,2.064,0,0,0,.838,0,2.17,2.17,0,0,0,.4-.122,2.12,2.12,0,0,0,.372-.2,2.056,2.056,0,0,0,.327-.266,2.157,2.157,0,0,0,.266-.327,2.285,2.285,0,0,0,.2-.372,2.018,2.018,0,0,0,.122-.4,2.074,2.074,0,0,0,0-.84A2.018,2.018,0,0,0,47.878,11.913Z"/><path d="M98,10.6A12.375,12.375,0,0,0,85.974,1.084H18.566A18.587,18.587,0,0,0,0,19.65V87.058A12.368,12.368,0,0,0,12,99.4a12.375,12.375,0,0,0,12.022,9.512H97.644A12.37,12.37,0,0,0,110,96.561V22.942A12.368,12.368,0,0,0,98,10.6ZM105.7,96.561a8.068,8.068,0,0,1-8.059,8.059H24.026a8.063,8.063,0,0,1-8.059-8.059v-11.4L40.615,43.371a4.049,4.049,0,0,1,7.044.121L58.271,62.978,73.7,91.3a2.149,2.149,0,0,0,3.774-2.055l-5.006-9.192a8.862,8.862,0,0,0,6.081-2.038L88.208,70a4.065,4.065,0,0,1,5.321.132l.5.462,4.3,3.939,7.373,6.758Zm0-21.1L98.33,68.707l-4.3-3.272A8.383,8.383,0,0,0,85.464,66.7L75.8,74.711a4.6,4.6,0,0,1-6.979-1.341L62.045,60.923l-3.785-6.95h0L51.432,41.436a8.346,8.346,0,0,0-14.519-.248L15.967,76.705V22.942a8.068,8.068,0,0,1,8.059-8.059H37.3a2.148,2.148,0,0,0,0-4.3H24.025A12.37,12.37,0,0,0,11.67,22.942V95.085A8.068,8.068,0,0,1,4.3,87.058V19.65A14.285,14.285,0,0,1,18.566,5.38H85.974a8.071,8.071,0,0,1,7.536,5.206H54.488a2.148,2.148,0,0,0,0,4.3H94.033l4.3.031a8.068,8.068,0,0,1,7.373,8.027Z"/></g></g></svg>