<svg xmlns="http://www.w3.org/2000/svg" xmlns:xlink="http://www.w3.org/1999/xlink" width="92" height="92" viewBox="0 0 92 92"><defs><style>.a{fill:#eac641;}.b{clip-path:url(#a);}</style><clipPath id="a"><rect class="a" width="92" height="92" transform="translate(1200 1485)"/></clipPath></defs><g class="b" transform="translate(-1200 -1485)"><g transform="translate(1200 1485)"><path d="M72.234,29.828a1.8,1.8,0,1,0,1.8,1.8A1.8,1.8,0,0,0,72.234,29.828Z"/><path d="M86.609,22.641H66.876l-5.7-11.395a5.362,5.362,0,0,0-4.822-2.98H35.643a5.361,5.361,0,0,0-4.822,2.981l-5.7,11.394H21.563v-1.8a5.4,5.4,0,0,0-5.391-5.391H12.578a5.4,5.4,0,0,0-5.391,5.391v1.8h-1.8A5.4,5.4,0,0,0,0,28.031V78.344a5.4,5.4,0,0,0,5.391,5.391H86.609A5.4,5.4,0,0,0,92,78.344V28.031A5.4,5.4,0,0,0,86.609,22.641ZM34.036,12.853a1.787,1.787,0,0,1,1.607-.994H56.357a1.788,1.788,0,0,1,1.607.994l4.894,9.787H29.142Zm-23.254,7.99a1.8,1.8,0,0,1,1.8-1.8h3.594a1.8,1.8,0,0,1,1.8,1.8v1.8H10.781ZM3.594,40.591H26.315a23.395,23.395,0,0,0,0,25.174H3.594ZM46,33.422A19.766,19.766,0,1,1,26.234,53.188,19.776,19.776,0,0,1,46,33.422ZM88.406,78.344a1.8,1.8,0,0,1-1.8,1.8H5.391a1.8,1.8,0,0,1-1.8-1.8V69.359H29.15a23.345,23.345,0,0,0,33.7,0H88.406Zm0-12.578H65.685a23.364,23.364,0,0,0,0-25.156H88.406Zm0-28.75H62.85a23.345,23.345,0,0,0-33.7,0H3.594V28.031a1.8,1.8,0,0,1,1.8-1.8H86.609a1.8,1.8,0,0,1,1.8,1.8Z"/><path d="M51.391,15.453H40.609a1.8,1.8,0,0,0,0,3.594H51.391a1.8,1.8,0,0,0,0-3.594Z"/><path d="M46,37.016A16.172,16.172,0,1,0,62.172,53.188,16.19,16.19,0,0,0,46,37.016Zm0,28.75A12.578,12.578,0,1,1,58.578,53.188,12.592,12.592,0,0,1,46,65.766Z"/><path d="M46,44.2a8.995,8.995,0,0,0-8.984,8.984,1.8,1.8,0,0,0,3.594,0A5.4,5.4,0,0,1,46,47.8,1.8,1.8,0,0,0,46,44.2Z"/><path d="M83.016,29.828H79.422a1.8,1.8,0,0,0,0,3.594h3.594a1.8,1.8,0,0,0,0-3.594Z"/></g></g></svg>