<svg xmlns="http://www.w3.org/2000/svg" xmlns:xlink="http://www.w3.org/1999/xlink" width="92" height="92" viewBox="0 0 92 92">
<defs><style>.b{clip-path:url(#a);}</style>
<clipPath id="a"><rect width="92" height="92" transform="translate(1488 1485)"/></clipPath>
</defs><g class="b" transform="translate(-1488 -1485)"><g transform="translate(1488 1485)">
<path  d="M69.767,0H8.433A7.676,7.676,0,0,0,.767,7.667V56.734a7.667,7.667,0,0,0,5.752,7.424l.767-2.969a4.6,4.6,0,0,1-3.452-4.456V7.667a4.6,4.6,0,0,1,4.6-4.6H69.767a4.6,4.6,0,0,1,4.6,4.6V9.2h3.067V7.667A7.676,7.676,0,0,0,69.767,0Z"/>
<rect  width="3.067" height="3.067" transform="translate(6.9 6.133)"/><rect width="3.067" height="3.067" transform="translate(13.033 6.133)"/><rect width="3.067" height="3.067" transform="translate(19.167 6.133)"/>
<path  d="M90.784,84.783,76.241,70.239a21.207,21.207,0,0,0,1.822-4.306H80.5V62.867H78.722a20.66,20.66,0,0,0-1.288-10.988V36.8H74.367v9.764A21.582,21.582,0,0,0,71.3,43.381V30.667H68.234V41.238a21.325,21.325,0,0,0-3.067-1.464V24.533H62.1V38.843a21.231,21.231,0,0,0-3.067-.431V27.6H55.967V38.412a21.231,21.231,0,0,0-3.067.431V33.733H49.834v6.04a21.335,21.335,0,0,0-3.067,1.464V32.2H43.7V43.381a21.582,21.582,0,0,0-3.067,3.183v-11.3H37.567V51.879a20.66,20.66,0,0,0-1.288,10.988H16.1v3.067H36.938a21.422,21.422,0,0,0,32.881,11.42l14.2,14.2a1.533,1.533,0,0,0,2.168,0l4.6-4.6A1.533,1.533,0,0,0,90.784,84.783ZM57.5,78.2A18.4,18.4,0,1,1,75.9,59.8,18.42,18.42,0,0,1,57.5,78.2ZM85.1,88.3,72.2,75.4a21.724,21.724,0,0,0,2.308-2.556L87.532,85.867Z"/><path d="M57.5,44.467A15.333,15.333,0,1,0,72.834,59.8,15.333,15.333,0,0,0,57.5,44.467Zm0,27.6a12.267,12.267,0,0,1-10.608-6.133H68.108A12.267,12.267,0,0,1,57.5,72.067Zm-11.863-9.2a12.155,12.155,0,0,1,4.2-12.627V59.8H52.9V48.437a12.21,12.21,0,0,1,3.067-.8V59.8h3.067V47.639a12.21,12.21,0,0,1,3.067.8V59.8h3.067V50.24a12.155,12.155,0,0,1,4.2,12.627Z"/><path d="M78.967,12.267H17.633a7.676,7.676,0,0,0-7.667,7.667V69a7.676,7.676,0,0,0,7.667,7.667H37.567V73.6H17.633a4.6,4.6,0,0,1-4.6-4.6V19.933a4.6,4.6,0,0,1,4.6-4.6H78.967a4.6,4.6,0,0,1,4.6,4.6V69a4.6,4.6,0,0,1-1.15,3.042l2.3,2.029A7.657,7.657,0,0,0,86.634,69V19.933A7.676,7.676,0,0,0,78.967,12.267Z"/>
<rect  width="3.067" height="3.067" transform="translate(16.1 18.4)"/>
<rect width="3.067" height="3.067" transform="translate(22.233 18.4)"/>
<rect  width="3.067" height="3.067" transform="translate(28.367 18.4)"/>
<rect width="3.067" height="9.2" transform="translate(19.167 50.6)"/>
<rect   width="3.067" height="18.4" transform="translate(25.3 41.4)"/>
<rect width="3.067" height="13.8" transform="translate(31.433 46)"/></g></g>
</svg>