<svg xmlns="http://www.w3.org/2000/svg" xmlns:xlink="http://www.w3.org/1999/xlink" width="92" height="92" viewBox="0 0 92 92"><defs><style>.a{fill:#ea3939;}.b{clip-path:url(#a);}</style><clipPath id="a"><rect class="a" width="92" height="92" transform="translate(1051 2468)"/></clipPath></defs><g class="b" transform="translate(-1051 -2468)"><path d="M35.928,64.669H48.143v7.185H35.928Zm-13.473-.9a4.491,4.491,0,1,0,4.491,4.491A4.49,4.49,0,0,0,22.455,63.771ZM72.214,41.855H35.928V49.04H72.214Zm-49.759-.9a4.491,4.491,0,1,0,4.491,4.491A4.49,4.49,0,0,0,22.455,40.957ZM72.214,20.3H35.928v7.185H72.214Zm-49.759-.9a4.491,4.491,0,1,0,4.491,4.491A4.491,4.491,0,0,0,22.455,19.4ZM7.185,81.2V10.778a3.6,3.6,0,0,1,3.593-3.593H81.2a3.6,3.6,0,0,1,3.592,3.593v40.6h7.185v-40.6A10.79,10.79,0,0,0,81.2,0H10.778A10.791,10.791,0,0,0,0,10.778V81.2A10.79,10.79,0,0,0,10.778,91.974h41.5V84.788h-41.5A3.6,3.6,0,0,1,7.185,81.2ZM86.919,92l-7.155-7.155a16.185,16.185,0,1,1,5.2-4.959L92,86.919ZM71.5,79.938a8.982,8.982,0,1,0-8.982-8.982A8.992,8.992,0,0,0,71.5,79.938Zm0,0" transform="translate(1051 2468)"/></g></svg>