<svg width="652" height="338" viewBox="0 0 652 338" fill="none" xmlns="http://www.w3.org/2000/svg">
<path d="M0 0H652V338H0V0Z" fill="white"/>
<g filter="url(#filter0_d)">
<path d="M622 133C622 157.853 601.853 178 577 178C552.147 178 532 157.853 532 133C532 108.147 552.147 88 577 88C601.853 88 622 108.147 622 133Z" fill="white"/>
</g>
<path d="M589.977 111.338C586.859 109.395 583.928 108.635 580.982 106.699C579.164 105.461 576.633 102.531 574.517 100C574.11 104.059 572.872 105.704 571.462 106.88C568.468 109.23 566.588 109.936 564.002 111.346C561.824 112.459 550.016 119.511 550.016 134.672C550.016 149.834 562.772 161 576.931 161C591.09 161 603.376 150.72 603.376 135.143C603.376 119.565 591.858 112.513 589.977 111.338Z" fill="#00598E"/>
<path d="M585.197 147.829C586.138 147.829 587.141 147.891 587.846 148.361C588.551 148.831 588.958 149.889 589.194 150.477C589.429 151.065 589.194 151.417 588.723 151.652C588.316 151.887 588.253 151.77 587.846 151.01C587.438 150.25 587.078 149.482 585.025 149.482C582.972 149.482 582.322 150.187 581.327 151.01C580.331 151.832 579.979 152.122 579.618 151.652C579.258 151.182 579.383 150.712 580.026 150.124C580.668 149.537 581.734 148.596 582.729 148.181C583.724 147.766 584.257 147.829 585.197 147.829Z" fill="white"/>
<path d="M575.45 154.528C576.625 155.468 578.388 156.236 582.149 156.236C585.91 156.236 588.551 155.17 589.726 154.293C590.259 153.885 590.494 154.23 590.549 154.465C590.604 154.7 590.722 155.053 590.314 155.468C590.016 155.766 587.321 157.646 584.14 157.936C580.958 158.226 576.68 158.406 574.094 156.056C573.687 155.648 573.797 155.053 574.094 154.818C574.392 154.583 574.627 154.41 574.972 154.41C575.317 154.41 575.27 154.41 575.45 154.528Z" fill="white"/>
<path d="M561.048 150.062C565.514 149.999 566.337 149.239 570.278 147.476C591.552 137.956 595.493 129.258 596.253 127.26C597.013 125.262 598.134 122.026 596.959 118.445C596.731 117.755 596.567 117.199 596.449 116.752C593.621 113.595 590.816 111.863 589.969 111.338C586.913 109.395 583.912 108.635 580.974 106.699C579.156 105.524 576.625 102.531 574.51 100C574.102 104.059 572.927 105.759 571.454 106.88C568.461 109.23 566.58 109.936 563.994 111.346C561.816 112.513 550 119.503 550 134.665C550 139.507 551.301 143.942 553.534 147.734L554.114 147.711C555.344 148.824 557.287 150.124 561.048 150.062Z" fill="#0073BA"/>
<path d="M574.8 101.168C575.622 103.581 575.505 104.811 575.505 105.336C575.505 105.861 575.207 107.279 574.267 107.985C573.859 108.282 573.734 108.517 573.734 108.572C573.734 108.807 574.267 108.98 574.267 109.513C574.267 110.155 573.969 111.456 570.858 114.567C567.748 117.677 563.274 120.443 559.81 122.151C556.347 123.86 554.701 123.734 554.231 122.911C553.761 122.089 554.404 120.263 556.582 117.857C558.76 115.452 565.632 111.981 565.632 111.981L574.212 105.987L574.682 103.699" fill="white"/>
<path d="M574.8 101.105C574.267 104.983 573.092 106.159 571.509 107.389C568.86 109.387 566.275 110.617 565.695 110.915C564.167 111.683 558.643 114.739 555.759 119.142C554.882 120.49 555.759 121.023 555.932 121.14C556.104 121.258 558.11 121.493 562.396 118.907C566.682 116.322 568.57 114.801 570.984 112.278C572.277 110.931 572.457 110.163 572.457 109.81C572.457 109.403 572.159 109.223 571.689 109.105C571.454 109.042 571.391 108.933 571.689 108.752C571.987 108.572 573.209 107.984 573.507 107.749C573.805 107.514 575.215 106.574 575.27 105.046C575.325 103.518 575.215 102.46 574.8 101.105Z" fill="white"/>
<path d="M561.581 143.832C561.644 139.249 565.93 134.963 571.336 134.9C578.216 134.837 582.972 141.717 586.443 141.654C589.382 141.591 595.023 135.84 597.789 135.84C600.727 135.84 601.55 138.896 601.55 140.714C601.55 142.532 600.963 145.823 599.552 147.883C598.142 149.944 597.264 150.704 595.619 150.587C593.503 150.414 589.272 143.832 586.569 143.707C583.16 143.589 575.755 150.822 569.941 150.822C566.415 150.822 565.358 150.289 564.182 149.529C562.396 148.299 561.518 146.418 561.581 143.832Z" fill="white"/>
<g filter="url(#filter1_d)">
<path d="M130 128C130 150.091 112.091 168 90 168C67.9086 168 50 150.091 50 128C50 105.909 67.9086 88 90 88C112.091 88 130 105.909 130 128Z" fill="white"/>
</g>
<path d="M108.127 109.638C108.083 109.374 107.863 109.198 107.642 109.198C107.422 109.198 103.237 108.889 103.237 108.889C103.237 108.889 100.33 105.982 99.9775 105.674C99.6691 105.365 99.0084 105.453 98.7881 105.542C98.7441 105.542 98.1273 105.718 97.1582 106.026C96.1891 103.207 94.4711 100.608 91.4315 100.608C91.3434 100.608 91.2553 100.608 91.1672 100.608C90.2862 99.4625 89.2289 98.9779 88.3039 98.9779C81.2116 98.9779 77.8196 107.832 76.7624 112.326C74.0312 113.162 72.0489 113.779 71.8286 113.867C70.2868 114.352 70.2428 114.396 70.0665 115.85C69.8903 116.907 65.8817 147.963 65.8817 147.963L97.1582 153.822L114.118 150.166C114.118 150.166 108.171 109.947 108.127 109.638ZM95.3961 106.555C94.6032 106.819 93.7222 107.083 92.7531 107.392C92.7531 107.216 92.7531 107.039 92.7531 106.819C92.7531 105.057 92.4887 103.647 92.1363 102.546C93.7222 102.722 94.7354 104.484 95.3961 106.555ZM90.1981 102.854C90.6386 103.956 90.9029 105.498 90.9029 107.612C90.9029 107.7 90.9029 107.832 90.9029 107.92C89.1849 108.449 87.2907 109.022 85.4405 109.594C86.4977 105.586 88.4801 103.603 90.1981 102.854ZM88.0836 100.872C88.392 100.872 88.7003 100.96 89.0087 101.18C86.7621 102.238 84.2952 104.925 83.282 110.299C81.7842 110.784 80.3305 111.224 78.9649 111.621C80.1543 107.524 83.0177 100.872 88.0836 100.872Z" fill="#95BF47"/>
<path d="M107.642 109.198C107.422 109.198 103.237 108.889 103.237 108.889C103.237 108.889 100.33 105.982 99.9775 105.674C99.8453 105.541 99.7132 105.497 99.537 105.453L97.1582 153.822L114.118 150.166C114.118 150.166 108.171 109.947 108.127 109.682C108.083 109.374 107.819 109.242 107.642 109.198Z" fill="#5E8E3E"/>
<path d="M91.3874 118.581L89.317 124.792C89.317 124.792 87.4668 123.823 85.2642 123.823C81.9604 123.823 81.8282 125.893 81.8282 126.422C81.8282 129.241 89.2288 130.343 89.2288 136.994C89.2288 142.236 85.925 145.584 81.4317 145.584C76.0575 145.584 73.3263 142.236 73.3263 142.236L74.78 137.479C74.78 137.479 77.5993 139.902 79.978 139.902C81.5198 139.902 82.1806 138.668 82.1806 137.787C82.1806 134.087 76.1015 133.911 76.1015 127.832C76.1015 122.722 79.7578 117.744 87.2025 117.744C89.9777 117.744 91.3874 118.581 91.3874 118.581Z" fill="white"/>
<path d="M467.616 67H324.028H184.526C175.478 67 168.036 74.4581 168.036 83.5249V284.602C168.036 293.669 175.478 301.127 184.526 301.127H324.028H467.616C476.663 301.127 484.105 293.669 484.105 284.602V83.5249C484.105 74.4581 476.663 67 467.616 67Z" fill="#3B3735"/>
<path d="M327.094 73.5807C327.094 71.9721 325.781 70.5097 324.03 70.5097C322.425 70.5097 320.966 71.8258 320.966 73.5807C320.966 75.1893 322.279 76.6517 324.03 76.6517C325.781 76.5055 327.094 75.1893 327.094 73.5807Z" fill="#3B3735"/>
<path d="M139 294.4V298.348C139 303.759 143.378 308 148.631 308H503.369C508.768 308 513 303.613 513 298.348V294.4H139Z" fill="#D9D8D9"/>
<path d="M301.704 294.4C302.725 297.763 305.79 300.103 309.438 300.103H342.708C346.356 300.103 349.421 297.617 350.442 294.4H301.704Z" fill="#BCB9B8"/>
<path d="M471.262 80H180V273.326H471.262V80Z" fill="#FFFFFD"/>
<path fill-rule="evenodd" clip-rule="evenodd" d="M398.114 181H253C249.686 181 247 183.686 247 187V222C247 225.314 249.686 228 253 228H398.114C401.427 228 404.114 225.314 404.114 222V187C404.114 183.686 401.427 181 398.114 181ZM253 179C248.582 179 245 182.582 245 187V222C245 226.418 248.582 230 253 230H398.114C402.532 230 406.114 226.418 406.114 222V187C406.114 182.582 402.532 179 398.114 179H253Z" fill="#8BC34A"/>
<path d="M268.31 200.807C267.352 200.807 266.605 201.2 266.069 201.988C265.532 202.769 265.264 203.849 265.264 205.228C265.264 208.094 266.354 209.527 268.534 209.527C269.193 209.527 269.831 209.435 270.449 209.252C271.067 209.068 271.689 208.848 272.313 208.59V211.992C271.07 212.542 269.665 212.817 268.096 212.817C265.848 212.817 264.123 212.165 262.921 210.861C261.725 209.557 261.128 207.673 261.128 205.207C261.128 203.666 261.416 202.311 261.994 201.143C262.578 199.975 263.413 199.078 264.5 198.453C265.593 197.822 266.877 197.506 268.35 197.506C269.96 197.506 271.498 197.856 272.965 198.555L271.733 201.723C271.183 201.465 270.632 201.248 270.082 201.071C269.532 200.895 268.941 200.807 268.31 200.807Z" fill="#8BC34A"/>
<path d="M288.933 197.72V206.685C288.933 208.634 288.379 210.145 287.272 211.218C286.172 212.284 284.583 212.817 282.505 212.817C280.474 212.817 278.912 212.298 277.819 211.259C276.732 210.22 276.189 208.725 276.189 206.776V197.72H280.233V206.461C280.233 207.513 280.43 208.277 280.824 208.753C281.218 209.228 281.798 209.466 282.566 209.466C283.388 209.466 283.982 209.231 284.349 208.763C284.722 208.287 284.909 207.513 284.909 206.44V197.72H288.933Z" fill="#8BC34A"/>
<path d="M302.843 208.09C302.843 209.014 302.608 209.836 302.14 210.556C301.671 211.269 300.995 211.826 300.113 212.227C299.23 212.62 298.194 212.817 297.005 212.817C296.014 212.817 295.182 212.749 294.509 212.614C293.837 212.471 293.138 212.227 292.411 211.88V208.294C293.178 208.688 293.976 208.997 294.805 209.221C295.633 209.439 296.394 209.547 297.087 209.547C297.685 209.547 298.123 209.445 298.401 209.242C298.679 209.031 298.819 208.763 298.819 208.437C298.819 208.233 298.761 208.057 298.646 207.907C298.537 207.751 298.357 207.595 298.106 207.438C297.861 207.282 297.202 206.963 296.129 206.481C295.158 206.039 294.428 205.612 293.939 205.197C293.457 204.783 293.097 204.308 292.859 203.771C292.628 203.235 292.513 202.6 292.513 201.866C292.513 200.494 293.012 199.424 294.01 198.657C295.009 197.89 296.381 197.506 298.126 197.506C299.668 197.506 301.24 197.862 302.843 198.576L301.61 201.683C300.218 201.044 299.016 200.725 298.004 200.725C297.481 200.725 297.1 200.817 296.863 201C296.625 201.183 296.506 201.411 296.506 201.683C296.506 201.975 296.656 202.236 296.954 202.467C297.26 202.698 298.082 203.119 299.42 203.73C300.703 204.308 301.593 204.929 302.089 205.595C302.591 206.253 302.843 207.085 302.843 208.09Z" fill="#8BC34A"/>
<path d="M312.759 212.614H308.735V201.01H305.098V197.72H316.386V201.01H312.759V212.614Z" fill="#8BC34A"/>
<path d="M333.494 205.146C333.494 207.652 332.88 209.557 331.65 210.861C330.421 212.165 328.621 212.817 326.251 212.817C323.915 212.817 322.122 212.162 320.872 210.851C319.629 209.54 319.008 207.632 319.008 205.126C319.008 202.647 319.626 200.756 320.862 199.452C322.105 198.141 323.908 197.485 326.272 197.485C328.642 197.485 330.438 198.134 331.661 199.431C332.883 200.728 333.494 202.633 333.494 205.146ZM323.246 205.146C323.246 208.026 324.248 209.466 326.251 209.466C327.27 209.466 328.024 209.116 328.513 208.416C329.008 207.717 329.256 206.627 329.256 205.146C329.256 203.659 329.005 202.562 328.503 201.856C328.007 201.143 327.263 200.786 326.272 200.786C324.254 200.786 323.246 202.24 323.246 205.146Z" fill="#8BC34A"/>
<path d="M343.716 212.614L340.67 201.886H340.579C340.721 203.713 340.793 205.133 340.793 206.145V212.614H337.227V197.72H342.585L345.693 208.294H345.774L348.82 197.72H354.189V212.614H350.491V206.084C350.491 205.744 350.494 205.367 350.501 204.953C350.515 204.538 350.562 203.523 350.644 201.907H350.552L347.547 212.614H343.716Z" fill="#8BC34A"/>
<path d="M358.441 212.614V197.72H362.485V212.614H358.441Z" fill="#8BC34A"/>
<path d="M377.373 212.614H365.77V210.128L372.218 200.97H365.923V197.72H377.21V200.195L370.762 209.364H377.373V212.614Z" fill="#8BC34A"/>
<path d="M389.398 212.614H380.556V197.72H389.398V200.949H384.58V203.292H389.042V206.522H384.58V209.333H389.398V212.614Z" fill="#8BC34A"/>
<path d="M420.409 230.408C420.03 228.995 418.719 228.118 417.299 228.499C415.879 228.88 414.568 230.459 414.947 231.872L414.61 230.615C414.232 229.202 412.481 228.442 411.062 228.822C409.64 229.203 408.506 230.736 408.885 232.149L408.373 230.241C407.999 228.843 406.268 228.091 404.864 228.439C404.802 228.453 404.738 228.465 404.673 228.483C403.255 228.863 402.133 230.392 402.512 231.805L399.91 222.095C399.531 220.682 397.884 219.894 396.464 220.275C395.044 220.655 394.053 222.149 394.432 223.563L399.67 243.11L397.131 241.155C395.789 240.122 393.859 240.369 392.818 241.708C391.777 243.047 392.022 244.969 393.366 246.002L405.256 255.16L406.21 256.629C406.524 257.222 407.218 257.542 407.896 257.36L421.781 253.64C421.781 253.64 421.782 253.638 421.785 253.635C421.797 253.632 421.807 253.633 421.819 253.63C422.469 253.456 422.899 252.877 422.915 252.239C422.915 252.228 422.919 252.22 422.918 252.209C422.56 236.084 420.409 230.408 420.409 230.408Z" fill="white"/>
<path d="M421.527 230.052C420.951 228.014 418.972 226.834 416.995 227.364C416.182 227.582 415.401 228.08 414.804 228.739C413.804 227.759 412.231 227.292 410.758 227.687C410.046 227.878 409.416 228.253 408.912 228.742C408.559 228.287 408.087 227.906 407.517 227.629C406.609 227.187 405.549 227.065 404.603 227.293C404.538 227.307 404.458 227.324 404.369 227.348C403.765 227.51 403.217 227.807 402.757 228.195L401.041 221.792C400.505 219.789 398.269 218.573 396.159 219.139C394.072 219.698 392.762 221.863 393.299 223.866L397.642 240.077C396.619 239.378 395.36 239.163 394.148 239.487C393.246 239.729 392.466 240.248 391.893 240.986C391.195 241.883 390.89 242.996 391.035 244.121C391.18 245.244 391.753 246.242 392.652 246.935L404.382 255.967L405.202 257.234C405.795 258.292 407.02 258.81 408.2 258.494L422.252 254.729L422.263 254.723C423.302 254.38 424.039 253.414 424.086 252.316C424.089 252.28 424.091 252.233 424.089 252.18C423.746 236.707 421.77 230.731 421.527 230.052ZM421.743 252.178C421.744 252.188 421.743 252.199 421.743 252.21C421.74 252.313 421.675 252.437 421.541 252.485C421.522 252.49 421.502 252.494 421.48 252.5L421.109 252.599L421.106 252.602L407.591 256.223C407.435 256.265 407.299 256.182 407.245 256.077L407.22 256.034L406.13 254.351L394.078 245.071C393.68 244.765 393.426 244.321 393.362 243.825C393.298 243.326 393.433 242.83 393.744 242.429C394.002 242.1 394.352 241.867 394.757 241.758C395.339 241.602 395.944 241.722 396.416 242.084L401.7 246.153L395.565 223.259C395.365 222.513 395.938 221.632 396.768 221.409C397.604 221.185 398.581 221.666 398.777 222.398L402.648 236.846L402.65 236.846C402.652 236.852 402.652 236.859 402.654 236.866C402.821 237.491 403.465 237.864 404.09 237.697C404.716 237.529 405.086 236.885 404.918 236.259C404.916 236.253 404.914 236.246 404.913 236.239L403.643 231.502C403.451 230.783 404.113 229.849 404.977 229.617C405.014 229.608 405.051 229.6 405.085 229.594L405.147 229.58C406.015 229.364 407.054 229.842 407.242 230.544L408.51 235.275C408.511 235.282 408.513 235.289 408.515 235.295C408.682 235.921 409.325 236.294 409.95 236.126C410.576 235.959 410.947 235.314 410.779 234.689C410.778 234.682 410.774 234.676 410.772 234.669L410.774 234.669L410.018 231.845C409.825 231.127 410.492 230.192 411.366 229.958C412.222 229.728 413.288 230.213 413.477 230.918L414.233 233.742L414.235 233.741C414.237 233.748 414.237 233.755 414.239 233.762C414.406 234.387 415.05 234.76 415.676 234.592C416.301 234.425 416.672 233.78 416.505 233.155C416.503 233.148 416.5 233.142 416.498 233.135L416.5 233.135L416.08 231.568C415.898 230.89 416.696 229.878 417.603 229.635C418.451 229.407 419.085 230.004 419.275 230.712L419.29 230.765L419.312 230.822C419.332 230.879 421.393 236.591 421.743 252.178Z" fill="#3B3735"/>
<path d="M472.036 80H180.036V93H472.036V80Z" fill="#DD2113"/>
<path d="M404.612 144.798C415.556 144.798 424.312 135.878 424.312 124.91H384.767C384.767 135.878 393.668 144.798 404.612 144.798Z" fill="#DD2113"/>
<path d="M443.576 144.213C454.228 144.213 462.692 135.585 462.692 125.056H424.314C424.314 135.585 432.924 144.213 443.576 144.213Z" fill="#EDB900"/>
<path d="M481.807 144.213C492.459 144.213 500.922 135.585 500.922 125.056H462.545C462.691 135.585 471.3 144.213 481.807 144.213Z" fill="#DD2113"/>
<path d="M170.845 144.798C181.79 144.798 190.545 135.878 190.545 124.91H151C151 135.878 159.901 144.798 170.845 144.798Z" fill="#DD2113"/>
<path d="M210.393 144.798C221.337 144.798 230.238 135.878 230.238 124.91H190.547C190.547 135.878 199.448 144.798 210.393 144.798Z" fill="#EDB900"/>
<path d="M249.35 144.213C260.003 144.213 268.466 135.585 268.466 125.056H230.089C230.089 135.585 238.698 144.213 249.35 144.213Z" fill="#DD2113"/>
<path d="M365.071 144.798C376.015 144.798 384.77 135.878 384.77 124.91H345.225C345.225 135.878 354.126 144.798 365.071 144.798Z" fill="#EDB900"/>
<path d="M287.729 144.213C298.382 144.213 306.845 135.585 306.845 125.056H268.467C268.467 135.585 277.077 144.213 287.729 144.213Z" fill="#EDB900"/>
<path d="M326.108 144.213C336.76 144.213 345.224 135.585 345.224 125.056H306.846C306.846 135.585 315.456 144.213 326.108 144.213Z" fill="#DD2113"/>
<path d="M501.036 125.5L151.036 125L180.036 93.0303H471.738L501.036 125.5Z" fill="#F44336"/>
<path d="M190.547 125.495L210.393 93.0303H241.62L230.092 125.495H190.547Z" fill="#FFC107"/>
<path d="M268.468 125.495L275.18 93.0303H306.408L306.845 125.495H268.468Z" fill="#FFC107"/>
<path d="M345.222 125.495L339.531 93.0303H372.947L384.767 125.495H345.222Z" fill="#FFC107"/>
<path d="M424.314 125.495L407.533 93.0303H439.636L462.692 125.495H424.314Z" fill="#FFC107"/>
<path d="M241.617 80.1614H210.39V93.1765H241.617V80.1614Z" fill="#EDB900"/>
<path d="M306.556 80.1614H275.183V93.1765H306.556V80.1614Z" fill="#EDB900"/>
<path d="M372.948 80.1614H339.531V93.1765H372.948V80.1614Z" fill="#EDB900"/>
<path d="M440.074 80.1614H407.534V93.1765H440.074V80.1614Z" fill="#EDB900"/>
<g filter="url(#filter2_d)">
<path d="M195 220C195 242.091 177.091 260 155 260C132.909 260 115 242.091 115 220C115 197.909 132.909 180 155 180C177.091 180 195 197.909 195 220Z" fill="white"/>
</g>
<path d="M155.022 194.607L133.009 207.313V232.692L139.293 236.325L139.249 210.94L154.978 201.861L170.707 210.94V236.314L176.991 232.692V207.291L155.022 194.607Z" fill="#F26322"/>
<path d="M158.139 236.32L155 238.144L151.844 236.336V210.94L145.566 214.568L145.577 239.952L154.994 245.393L164.423 239.952V214.568L158.139 210.94V236.32Z" fill="#F26322"/>
<g filter="url(#filter3_d)">
<path d="M537 220C537 242.091 519.091 260 497 260C474.909 260 457 242.091 457 220C457 197.909 474.909 180 497 180C519.091 180 537 197.909 537 220Z" fill="white"/>
</g>
<path fill-rule="evenodd" clip-rule="evenodd" d="M465.478 208.527C466.325 206.469 468.495 205.002 470.769 205.002C487.859 205.002 504.928 205.002 522.019 205.002C523.506 204.961 524.994 205.511 526.069 206.51C527.33 207.61 528.032 209.26 527.991 210.91C527.991 217.369 528.011 223.827 527.991 230.285C527.97 233.199 525.387 235.807 522.432 235.888C516.212 235.908 509.971 235.888 503.73 235.908C504.556 237.946 505.404 239.963 506.251 242C502.531 239.983 498.873 237.905 495.133 235.929C486.929 235.868 478.745 235.929 470.541 235.888C467.586 235.807 465.003 233.199 465.003 230.285C465.003 223.97 465.024 217.634 465.003 211.318C464.982 210.36 465.065 209.403 465.478 208.527Z" fill="#9C5C8F"/>
<path fill-rule="evenodd" clip-rule="evenodd" d="M490.784 208.606C491.733 207.592 493.529 207.923 494.21 209.061C494.582 209.661 494.623 210.468 494.313 211.089C492.992 213.675 492.456 216.572 491.94 219.407C491.341 223.111 490.846 226.856 491.032 230.621C491.094 231.573 490.619 232.753 489.587 232.96C488.617 233.167 487.729 232.546 487.131 231.842C484.345 228.842 482.776 224.952 481.641 221.062C480.485 223.338 479.33 225.614 478.215 227.911C477.472 229.463 476.647 231.056 475.388 232.277C474.851 232.794 473.964 233.27 473.303 232.732C472.292 231.842 472.024 230.415 471.59 229.173C469.939 223.483 469.01 217.627 468.061 211.792C467.834 210.82 468.247 209.661 469.217 209.268C470.001 208.978 470.992 208.937 471.673 209.516C472.147 209.93 472.271 210.572 472.354 211.172C473.035 215.682 473.819 220.193 474.913 224.621C476.77 221.083 478.628 217.524 480.485 213.986C480.754 213.468 481.084 212.951 481.6 212.62C482.281 212.185 483.292 212.206 483.849 212.827C484.324 213.324 484.489 214.027 484.613 214.689C485.17 217.627 485.913 220.524 487.007 223.297C487.482 219.117 488.06 214.875 489.587 210.923C489.917 210.116 490.227 209.289 490.784 208.606ZM501.268 210.841C503.27 210.592 505.437 211.254 506.8 212.786C507.914 214.048 508.533 215.682 508.74 217.358C509.09 220.193 508.575 223.152 507.212 225.656C506.449 227.083 505.437 228.47 504.013 229.318C501.929 230.58 499.143 230.435 497.141 229.09C495.531 227.994 494.623 226.111 494.272 224.228C493.529 219.986 494.788 215.269 497.987 212.31C498.916 211.523 500.051 210.985 501.268 210.841ZM501.681 215.206C500.711 215.517 500.113 216.407 499.597 217.234C498.296 219.324 497.925 222.097 498.957 224.373C499.225 224.973 499.679 225.593 500.36 225.738C501.103 225.862 501.784 225.428 502.321 224.973C503.518 223.959 504.096 222.428 504.385 220.917C504.715 219.2 504.55 217.296 503.539 215.848C503.147 215.227 502.362 214.958 501.681 215.206ZM517.367 210.841C519.327 210.592 521.453 211.213 522.836 212.661C524.074 213.986 524.735 215.765 524.92 217.545C525.209 220.297 524.714 223.131 523.414 225.573C522.629 227.042 521.597 228.47 520.153 229.318C518.151 230.518 515.509 230.415 513.548 229.214C512.207 228.408 511.319 227.021 510.803 225.573C509.4 221.145 510.576 215.931 513.817 212.579C514.745 211.689 516.004 211.027 517.367 210.841ZM517.779 215.206C516.727 215.579 516.087 216.593 515.55 217.503C514.374 219.593 514.064 222.283 515.138 224.497C515.427 225.097 515.942 225.718 516.665 225.759C517.449 225.78 518.13 225.283 518.687 224.766C519.884 223.586 520.421 221.91 520.607 220.276C520.813 218.745 520.545 217.11 519.657 215.827C519.265 215.227 518.46 214.958 517.779 215.206Z" fill="white"/>
<defs>
<filter id="filter0_d" x="520" y="78" width="114" height="114" filterUnits="userSpaceOnUse" color-interpolation-filters="sRGB">
<feFlood flood-opacity="0" result="BackgroundImageFix"/>
<feColorMatrix in="SourceAlpha" type="matrix" values="0 0 0 0 0 0 0 0 0 0 0 0 0 0 0 0 0 0 127 0"/>
<feOffset dy="2"/>
<feGaussianBlur stdDeviation="6"/>
<feColorMatrix type="matrix" values="0 0 0 0 0 0 0 0 0 0 0 0 0 0 0 0 0 0 0.15 0"/>
<feBlend mode="normal" in2="BackgroundImageFix" result="effect1_dropShadow"/>
<feBlend mode="normal" in="SourceGraphic" in2="effect1_dropShadow" result="shape"/>
</filter>
<filter id="filter1_d" x="38" y="78" width="104" height="104" filterUnits="userSpaceOnUse" color-interpolation-filters="sRGB">
<feFlood flood-opacity="0" result="BackgroundImageFix"/>
<feColorMatrix in="SourceAlpha" type="matrix" values="0 0 0 0 0 0 0 0 0 0 0 0 0 0 0 0 0 0 127 0"/>
<feOffset dy="2"/>
<feGaussianBlur stdDeviation="6"/>
<feColorMatrix type="matrix" values="0 0 0 0 0 0 0 0 0 0 0 0 0 0 0 0 0 0 0.15 0"/>
<feBlend mode="normal" in2="BackgroundImageFix" result="effect1_dropShadow"/>
<feBlend mode="normal" in="SourceGraphic" in2="effect1_dropShadow" result="shape"/>
</filter>
<filter id="filter2_d" x="103" y="170" width="104" height="104" filterUnits="userSpaceOnUse" color-interpolation-filters="sRGB">
<feFlood flood-opacity="0" result="BackgroundImageFix"/>
<feColorMatrix in="SourceAlpha" type="matrix" values="0 0 0 0 0 0 0 0 0 0 0 0 0 0 0 0 0 0 127 0"/>
<feOffset dy="2"/>
<feGaussianBlur stdDeviation="6"/>
<feColorMatrix type="matrix" values="0 0 0 0 0 0 0 0 0 0 0 0 0 0 0 0 0 0 0.15 0"/>
<feBlend mode="normal" in2="BackgroundImageFix" result="effect1_dropShadow"/>
<feBlend mode="normal" in="SourceGraphic" in2="effect1_dropShadow" result="shape"/>
</filter>
<filter id="filter3_d" x="445" y="170" width="104" height="104" filterUnits="userSpaceOnUse" color-interpolation-filters="sRGB">
<feFlood flood-opacity="0" result="BackgroundImageFix"/>
<feColorMatrix in="SourceAlpha" type="matrix" values="0 0 0 0 0 0 0 0 0 0 0 0 0 0 0 0 0 0 127 0"/>
<feOffset dy="2"/>
<feGaussianBlur stdDeviation="6"/>
<feColorMatrix type="matrix" values="0 0 0 0 0 0 0 0 0 0 0 0 0 0 0 0 0 0 0.15 0"/>
<feBlend mode="normal" in2="BackgroundImageFix" result="effect1_dropShadow"/>
<feBlend mode="normal" in="SourceGraphic" in2="effect1_dropShadow" result="shape"/>
</filter>
</defs>
</svg>
