<?xml version="1.0" encoding="utf-8"?>
<!-- Generator: Adobe Illustrator 21.1.0, SVG Export Plug-In . SVG Version: 6.00 Build 0)  -->
<svg version="1.1" xmlns="http://www.w3.org/2000/svg" xmlns:xlink="http://www.w3.org/1999/xlink" x="0px" y="0px"
	 viewBox="0 0 835 280" style="enable-background:new 0 0 835 280;" xml:space="preserve">
<style type="text/css">
	.st0{fill:#D4EBF9;}
	.st1{fill:#70BEF2;}
	.st2{fill:#D4EBF9;stroke:#70BEF2;stroke-width:4.1542;stroke-miterlimit:1;}
	.st3{fill:#FFFFFF;}
	.st4{fill-rule:evenodd;clip-rule:evenodd;fill:#D8D8D8;}
	.st5{fill-rule:evenodd;clip-rule:evenodd;fill:#21333A;}
	.st6{fill-rule:evenodd;clip-rule:evenodd;fill:#FFFFFF;}
	.st7{fill-rule:evenodd;clip-rule:evenodd;fill:#70BEF2;}
	.st8{fill-rule:evenodd;clip-rule:evenodd;fill:#3F4D51;}
	.st9{fill-rule:evenodd;clip-rule:evenodd;fill:#707372;}
	.st10{fill:#F7C4A1;}
	.st11{fill:#F4AE7A;}
	.st12{fill:#F9DFCD;}
	.st13{fill:#71BE72;}
	.st14{fill:#FBB040;}
	.st15{fill:#005EB8;}
	.st16{font-family:'OpenSans-Bold';}
	.st17{font-size:18.0995px;}
	.st18{opacity:0.2;fill-rule:evenodd;clip-rule:evenodd;fill:#707372;}
	.st19{fill-rule:evenodd;clip-rule:evenodd;fill:#71BE72;}
	.st20{fill-rule:evenodd;clip-rule:evenodd;fill:#9ADB9A;}
	.st21{fill-rule:evenodd;clip-rule:evenodd;fill:#FBB040;}
	.st22{fill-rule:evenodd;clip-rule:evenodd;fill:#F7C992;}
	.st23{fill:#105CB5;}
	.st24{fill:#57A7DB;}
	.st25{fill:#53B2D3;}
	.st26{fill:#FC6142;}
	.st27{fill:#73C073;}
	.st28{fill:#FCD156;}
	
		.st29{fill-rule:evenodd;clip-rule:evenodd;fill:none;stroke:#A1BAC4;stroke-width:3.6968;stroke-linecap:round;stroke-linejoin:round;stroke-miterlimit:22.9256;}
	.st30{fill:#9ADB9A;}
	
		.st31{fill-rule:evenodd;clip-rule:evenodd;fill:none;stroke:#A1BAC4;stroke-width:4.1499;stroke-linecap:round;stroke-linejoin:round;stroke-miterlimit:22.9256;}
	.st32{fill:#DFEEFB;}
	.st33{fill-rule:evenodd;clip-rule:evenodd;fill:#005EB8;}
	.st34{opacity:0.2;fill-rule:evenodd;clip-rule:evenodd;fill:#005EB8;}
	.st35{display:none;}
	.st36{display:inline;fill:#48A23F;}
	.st37{display:inline;fill:#ED8B00;}
	.st38{display:inline;fill:#005EB8;}
	.st39{display:inline;fill:#70BEF2;}
	.st40{display:inline;fill:#71BE72;}
	.st41{display:inline;fill:#BDDDF4;}
	.st42{display:inline;fill:#FBB040;}
	.st43{display:inline;fill:#8C4799;}
	.st44{display:inline;fill:#9EA2A2;}
	.st45{display:inline;fill:#E4002B;}
	.st46{display:inline;fill:#C8E5C9;}
	.st47{display:inline;fill:#F2A0B4;}
	.st48{display:inline;fill:#FF8564;}
	.st49{display:inline;fill:#FF9D83;}
	.st50{display:inline;fill:#707372;}
	.st51{display:inline;fill:#FFFFFF;}
	.st52{display:inline;fill:#21333A;}
	.st53{display:inline;fill:#C7C9C7;}
</style>
<g id="design">
	<g>
		<path class="st0" d="M697.5,42.8c0,16.8-17,30.6-37.9,30.6c-6.8,0-13-1.4-18.5-3.8c-0.2-0.2-0.7-0.3-0.7-0.3l-18.9,7.1
			c0,0,9.2-13.8,8.8-14.2c-5.4-5.4-8.7-12.3-8.7-19.6c0-16.8,17-30.6,37.9-30.6C680.5,12,697.5,25.8,697.5,42.8z"/>
		<g>
			<rect x="636.6" y="29.9" class="st1" width="45.8" height="4.5"/>
			<rect x="636.6" y="41.1" class="st1" width="45.8" height="4.5"/>
			<rect x="636.6" y="52.3" class="st1" width="30.2" height="4.5"/>
		</g>
	</g>
	<path class="st1" d="M238.8,32.7c6,0,11.3,2.7,14.8,7V0h-81v62h50.3c-1.9-3-3-6.5-3-10.3C219.7,41.3,228.3,32.7,238.8,32.7z"/>
	<g>
		<path class="st2" d="M214.5,162.2c0-5.9-2.4-11.1-6.5-14.5c3.4-3.1,7.5-4.8,12.3-4.8c10.6,0,19.2,8.7,19.2,19.4
			c0,10.7-8.6,19.4-19.2,19.4c-4.8,0-8.9-1.7-12.3-4.8C212.1,173.3,214.5,168.1,214.5,162.2L214.5,162.2z"/>
		<path class="st2" d="M195.7,142.8c4.8,0,8.9,1.7,12.3,4.8c-4.1,3.5-6.5,8.7-6.5,14.5s2.4,11.1,6.5,14.5c-3.4,3.1-7.5,4.8-12.3,4.8
			c-10.6,0-19.2-8.7-19.2-19.4C176.5,151.5,185.1,142.8,195.7,142.8L195.7,142.8z"/>
		<path class="st3" d="M202.8,162.2c0-4.5,2-8.8,5.2-11.6c3.2,2.8,5.2,7,5.2,11.6s-2,8.8-5.2,11.6
			C204.8,171,202.8,166.7,202.8,162.2L202.8,162.2z"/>
	</g>
	<g>
		<path class="st0" d="M314,61c-0.4,3-0.5,6-0.6,6.3c-0.2,1.1,0.2,2.8,0.8,3.8c0,0,0,0,14.8,23.3c0.2,0.3,0.4,0.6,0.7,0.7
			c0.3,0.2,0.7,0.2,1,0l0,0c0.3-0.2,0.5-0.5,0.6-1.1c0,0,0,0,0,0c0,0,0,0,1.9-15.4c2-0.4,5.2-1.4,9.9-4.4c4.7-3,7.1-5.4,8.2-7.1
			c0,0,0,0,14.8,4.8c0.5,0.2,0.9,0.1,1.2-0.1l0,0c0.4-0.3,0.7-0.9,0.1-1.8c0,0,0,0-14.8-23.3c-0.6-1-2-2-3.1-2.3
			c-0.3-0.1-3-1.3-5.9-2.2c-0.8-1.3-1.5-2.6-2.3-3.8C336,29.7,327.7,25,323.2,23c-6-2.7-12-3.8-14-2.5c-2,1.3-3.6,7.2-3.7,13.7
			c-0.1,4.9,0.6,14.4,6.1,23.1C312.4,58.6,313.2,59.8,314,61L314,61z M316.2,46.7c-2.8-4.5-2-10.1,1.8-12.6s9.3-0.7,12.1,3.7
			c2.9,4.5,2.1,10.1-1.8,12.6S319,51.2,316.2,46.7L316.2,46.7z"/>
		<path class="st1" d="M337.6,86.9c-0.5-0.9-2.2-4.2-2.3-4.7c-0.1-0.2-0.3-0.8,0.2-1.1c0.2-0.1,0.5-0.2,0.8-0.2
			c1.1-0.1,3.8-0.4,9-3.7c5.2-3.3,6.6-5.6,7.2-6.6c0.2-0.3,0.3-0.5,0.5-0.7c0.5-0.3,0.9,0.2,1.1,0.3c0.3,0.3,2.6,3.2,3.2,4.1
			c0.3,0.3,0.6,0.7,0.9,1.1c0.8,1,1.7,2.2,2.5,3.5c2.6,4.1,3.2,9.4,1.7,10.3c-1,0.7-2.8-0.5-3.9-1.3c0.3,1.1,0.9,2.9,1.3,4.9
			c1.3,5.5,0.6,6.7-0.1,7.1c0,0-0.1,0.1-0.1,0.1s0,0-0.1,0.1c-0.6,0.4-2,0.5-6.4-2.9c-1.5-1.2-3-2.5-3.8-3.2
			c0.3,1.3,0.5,3.5-0.5,4.1c-1.5,0.9-6-1.8-8.6-5.9c-0.8-1.3-1.5-2.7-2.1-3.8C338,87.7,337.8,87.3,337.6,86.9L337.6,86.9z"/>
	</g>
	<g id="XMLID_1_">
		<g>
			<path class="st0" d="M249.1,8c0,27.5,0,27.5,0,27.5c-3-1.8-6.6-2.4-10.2-2.4c-10.8,0-19.2,7.9-19.2,19c0,1.8,0,3.7,0.6,5.5
				c-43.7,0-43.7,0-43.7,0c0-49.6,0-49.6,0-49.6C249.1,8,249.1,8,249.1,8z"/>
		</g>
		<g>
		</g>
	</g>
	<polygon class="st3" points="181.4,28.8 244.9,28.8 244.9,12.9 181.4,12.9 181.4,28.8 	"/>
	<polygon class="st3" points="181.4,50.2 196.4,50.2 196.4,34.9 181.4,34.9 181.4,50.2 	"/>
	<polygon class="st3" points="200,50.2 215.5,50.2 215.6,34.9 200,34.9 200,50.2 	"/>
	<g>
		<path class="st0" d="M40.4,24c20.8,0,37.7,13.8,37.7,30.5c0,7.2-3.3,14.1-8.6,19.4C69.1,74.2,78.3,88,78.3,88l-18.8-7.1
			c0,0-0.5,0.2-0.7,0.3c-5.5,2.4-11.7,3.8-18.4,3.8c-20.8,0-37.7-13.8-37.7-30.5C2.7,37.8,19.6,24,40.4,24z"/>
		<path class="st1" d="M44.5,32.3h-8v4.2c-1.8,0.4-3.5,1.1-5,2.1l-3-3l-5.6,5.6l3,3c-0.9,1.5-1.6,3.2-2.1,5h-4.2v8h4.2
			c0.4,1.8,1.1,3.5,2.1,5l-3,3l5.6,5.6l3-3c1.5,0.9,3.2,1.6,5,2.1v4.2h8v-4.2c1.8-0.4,3.5-1.1,5-2.1l3,3l5.6-5.6l-3-3
			c0.9-1.5,1.6-3.2,2.1-5h4.2v-8h-4.2c-0.4-1.8-1.1-3.5-2.1-5l3-3l-5.6-5.6l-3,3c-1.5-0.9-3.2-1.6-5-2.1V32.3z M47.8,53.2
			c0,4.1-3.4,7.5-7.5,7.5s-7.5-3.4-7.5-7.5s3.4-7.5,7.5-7.5l0,0C44.5,45.7,47.8,49,47.8,53.2z"/>
	</g>
	<path class="st1" d="M726.1,148l-12.9,2l1.1,6.8c-2.8,1.1-5.3,2.7-7.6,4.6l-5.6-4.1l-7.7,10.5l5.6,4.1c-1.1,2.7-1.8,5.7-2,8.6
		l-6.8,1.1l2,12.9l6.8-1.1c1.1,2.8,2.7,5.3,4.6,7.6l-4.1,5.6l10.5,7.7l4.1-5.6c2.7,1.1,5.7,1.8,8.6,2l1.1,6.8l12.9-2l-1.1-6.8
		c2.8-1.1,5.3-2.7,7.6-4.6l5.6,4.1l7.7-10.5l-5.6-4.1c1.1-2.7,1.8-5.7,2-8.6l6.8-1.1l-2-12.9l-6.8,1.1c-1.1-2.8-2.7-5.3-4.6-7.6
		l4.1-5.6l-10.5-7.7l-4.1,5.6c-2.7-1.1-5.7-1.8-8.6-2L726.1,148z M736.8,180.8c1.1,6.7-3.5,13-10.2,14c-6.7,1.1-13-3.5-14-10.2
		c-1.1-6.7,3.5-13,10.2-14l0,0C729.5,169.5,735.8,174.1,736.8,180.8z"/>
	<g>
		<path class="st4" d="M538.5,138.4l5.2,6.2l40.6,48.1c1.7,2-0.8,3.7-5.5,3.7h8.7l53.9,12.3H303.7l33.2-12.3h8.7
			c-4.8,0-10.1-1.7-11.8-3.7l-40.6-48.1l-5.2-6.2c-0.3,0-0.6,0-0.9,0c-7,0-14.7-2.4-17.2-5.4c2.5,3-1.1,5.4-8,5.4
			c-7,0-14.7-2.4-17.2-5.4h0l32.6-7.3l-5.6-6.6h250.6l5.6,6.6l45,7.3h0c2.5,3-1.1,5.4-8,5.4c-7,0-14.7-2.4-17.2-5.4
			c2.5,3-1.1,5.4-8,5.4C539.1,138.4,538.8,138.4,538.5,138.4L538.5,138.4z M642.8,210.4l-1.5-1.7H303.7l1.5,1.7l0.3,0.3h0.1
			c1.5,1.3,5,2.3,8.2,2.3h325.1c3.2,0,4.9-1,4.2-2.3h0.1L642.8,210.4z"/>
		<g>
			<path class="st5" d="M356.8,15.7h233.3c4.8,0,8.7,3.9,8.7,8.7v147.4c0,4.8-3.9,8.7-8.7,8.7H356.8c-4.8,0-8.7-3.9-8.7-8.7V24.3
				C348.2,19.6,352.1,15.7,356.8,15.7z"/>
			<rect x="361.2" y="32.9" class="st6" width="224.6" height="120.6"/>
			<circle class="st7" cx="473.5" cy="24.6" r="3.2"/>
			<rect x="468.2" y="160.9" class="st8" width="10.7" height="10.7"/>
			<polygon class="st8" points="348.2,180.4 598.8,180.4 642.3,208.9 304.6,208.9 			"/>
			<path class="st5" d="M304.6,208.9h337.7v4.1c0,3.4-2.8,6.3-6.3,6.3H310.9c-3.4,0-6.3-2.8-6.3-6.3V208.9z"/>
			<rect x="304.6" y="208.9" class="st5" width="337.7" height="4.9"/>
		</g>
		<path class="st9" d="M585.5,196.7v-0.2l0.3,0.2L585.5,196.7L585.5,196.7z M585.5,191.1c1.2,0.9,2.5,1.8,3.7,2.7c1.3,1,2.7,2,4,2.9
			c7.2,0,14.5,0,21.8,0c-1.6-1-3.2-1.9-4.8-2.9c-1.6-1-3.1-1.9-4.7-2.9c-6.7,0-13.4,0-20.1,0V191.1L585.5,191.1z M585.5,188.6v-5.8
			l6.8,0c1.6,1,3.2,1.9,4.8,2.9c1.6,1,3.2,1.9,4.8,2.9C596.4,188.6,590.9,188.6,585.5,188.6z M585.5,182.7v5.8l-3.4,0
			c-1.3-1-2.7-1.9-4.1-2.9c-1.1-0.8-2.2-1.6-3.4-2.5v-0.5L585.5,182.7L585.5,182.7z M585.5,190.9v0.2l-0.3-0.2H585.5L585.5,190.9z
			 M585.5,196.5c-1.2-0.9-2.4-1.8-3.5-2.7c-1.3-1-2.5-2-3.7-2.9l-3.6,0v5.9l10.9,0V196.5L585.5,196.5z M574.6,188.6l0.7,0l-0.7-0.5
			V188.6z M386.4,199.3H559l6.1,6.3H380.6L386.4,199.3L386.4,199.3z M574.6,182.7v0.5c-0.2-0.2-0.4-0.3-0.7-0.5L574.6,182.7
			L574.6,182.7z M574.6,188.1c-1.1-0.8-2.1-1.6-3.1-2.4c-1.3-1-2.5-2-3.8-2.9c-6.1,0-12.2,0-18.3,0c1.1,1,2,2,3.1,2.9
			c1,1,2.1,2,3.1,2.9l19.1,0V188.1L574.6,188.1z M574.6,190.9v5.9l-10.6,0c-1-1-2.1-2-3.1-2.9c-1-1-2-2-3-2.9
			C563.5,190.9,569.1,190.9,574.6,190.9L574.6,190.9z M370.4,196.9v-6.1c5.6,0,11.2,0,16.8,0c-1,1-2,2-3,3c-1,1-2,2-3.1,3
			L370.4,196.9L370.4,196.9z M370.4,188.5V188c1-0.8,2.1-1.7,3.1-2.5c1.2-1,2.5-2,3.8-3.1c6.1,0,12.2,0,18.3,0c-1,1-2,2-3,3
			c-1,1-2.1,2-3.1,3C383.2,188.5,376.8,188.5,370.4,188.5L370.4,188.5z M370.4,182.8l0.6-0.5l-0.6,0V182.8L370.4,182.8z
			 M394.2,190.8c6.8,0,13.5,0,20.3,0c-0.7,1-1.4,2-2.1,3c-0.7,1-1.4,2-2.1,3c-7.3,0-14.5,0-21.8,0c0.9-1,1.9-2,2.8-3
			C392.3,192.9,393.3,191.9,394.2,190.8L394.2,190.8z M421.4,190.8c6.8,0,13.6,0,20.3,0c-0.3,1-0.7,2-1.1,3c-0.4,1-0.7,2-1.1,3
			c-7.3,0-14.5,0-21.8,0c0.6-1,1.2-2,1.8-3C420.2,192.9,420.9,191.9,421.4,190.8L421.4,190.8z M448.8,190.8c6.8,0,13.5,0,20.3,0
			c0,1-0.1,2-0.1,3c0,1-0.1,2-0.1,3c-7.3,0-14.5,0-21.7,0c0.3-1,0.5-2,0.8-3C448.2,192.9,448.5,191.8,448.8,190.8L448.8,190.8z
			 M476.1,190.8c6.7,0,13.5,0,20.3,0c0.3,1,0.5,2,0.8,3c0.3,1,0.6,2,0.8,3c-7.3,0-14.5,0-21.7,0c0-1-0.1-2-0.1-3
			C476.1,192.8,476.1,191.8,476.1,190.8L476.1,190.8z M503.3,190.8c6.8,0,13.5,0,20.3,0c0.6,1,1.2,2,1.8,3c0.6,1,1.2,2,1.8,3
			c-7.3,0-14.5,0-21.8,0c-0.4-1-0.7-2-1.1-3C504.1,192.8,503.7,191.8,503.3,190.8L503.3,190.8z M530.6,190.8c6.8,0,13.6,0,20.3,0
			c0.9,1,1.8,2,2.8,2.9c0.9,1,1.9,2,2.8,2.9c-7.3,0-14.5,0-21.8,0c-0.7-1-1.4-2-2.1-3C532,192.8,531.3,191.8,530.6,190.8
			L530.6,190.8z M401.9,182.4c6.1,0,12.2,0,18.3,0c-0.7,1-1.4,2-2.1,3c-0.7,1-1.4,2-2.1,3c-6.6,0-13.2,0-19.8,0c0.9-1,1.9-2,2.8-3
			C400,184.4,401,183.4,401.9,182.4L401.9,182.4z M426.5,182.4c6.1,0,12.2,0,18.3,0c-0.4,1-0.7,2-1.1,3c-0.4,1-0.7,2-1.1,3
			c-6.6,0-13.2,0-19.8,0c0.6-1,1.2-2,1.8-3C425.3,184.5,425.9,183.5,426.5,182.4L426.5,182.4z M451.1,182.5c6.1,0,12.2,0,18.3,0
			c0,1-0.1,2-0.1,3c0,1-0.1,2-0.1,3c-6.6,0-13.2,0-19.7,0c0.3-1,0.6-2,0.8-3C450.5,184.5,450.8,183.5,451.1,182.5L451.1,182.5z
			 M475.7,182.5c6.1,0,12.2,0,18.3,0c0.3,1,0.6,2,0.9,3c0.3,1,0.6,2,0.9,3c-6.6,0-13.2,0-19.7,0c-0.1-1-0.1-2-0.1-3
			C475.8,184.5,475.7,183.5,475.7,182.5L475.7,182.5z M500.2,182.6c6.1,0,12.2,0,18.3,0c0.6,1,1.2,2,1.8,3c0.6,1,1.2,2,1.8,3
			c-6.6,0-13.2,0-19.8,0c-0.4-1-0.7-2-1.1-3C501,184.6,500.6,183.6,500.2,182.6L500.2,182.6z M524.8,182.6c6.1,0,12.2,0,18.3,0
			c1,1,1.9,2,2.8,2.9s1.9,2,2.8,2.9c-6.6,0-13.2,0-19.8,0c-0.7-1-1.4-2-2.1-3C526.2,184.6,525.5,183.6,524.8,182.6z M370.4,182.3
			v0.5c-1.1,0.9-2.3,1.7-3.4,2.6c-1.3,1-2.7,2-4,3.1l-3.4,0v-6.1L370.4,182.3L370.4,182.3z M370.4,188c-0.2,0.2-0.4,0.3-0.6,0.5h0.6
			V188L370.4,188z M370.4,190.8v6.1l-10.8,0v-0.2c1.2-0.9,2.3-1.9,3.5-2.9c1.2-1,2.5-2,3.7-3.1H370.4L370.4,190.8z M359.6,191
			l0.2-0.2h-0.2V191z M359.6,182.3v6.1c-5.5,0-10.9,0-16.3,0c1.6-1,3.2-2,4.7-3.1c1.6-1,3.1-2,4.7-3.1L359.6,182.3L359.6,182.3z
			 M359.6,190.8v0.2c-1.2,1-2.5,1.9-3.7,2.9c-1.3,1-2.6,2-4,3.1c-7.3,0-14.5,0-21.7,0c1.6-1,3.2-2,4.7-3.1c1.6-1,3.1-2,4.7-3.1
			C346.3,190.8,352.9,190.8,359.6,190.8L359.6,190.8z M359.6,196.7l-0.2,0.2h0.2V196.7z"/>
		<rect x="361.5" y="32.7" class="st6" width="224.2" height="120.8"/>
		<g>
			<path id="XMLID_134_" class="st1" d="M441.9,80.1c0-17.5,14.2-31.6,31.6-31.6c17.5,0,31.6,14.2,31.6,31.6
				c0,17.5-14.2,31.6-31.6,31.6C456.1,111.7,441.9,97.6,441.9,80.1"/>
			<g>
				<path id="XMLID_118_" class="st3" d="M487.4,72.3h-30.2l4.5,18.1h4.3h12.8h4.3L487.4,72.3z M473.4,74.5h5.1l-0.4,3h-4.7V74.5z
					 M471.1,77.6h-4.7l-0.4-3h5.1V77.6z M480.8,74.5h3.6l-0.7,3h-3.3L480.8,74.5z M482.4,83h-2.7l0.4-3.2h3.1L482.4,83z M477.4,83
					h-4v-3.2h4.4L477.4,83z M471.1,79.8V83h-4l-0.4-3.2H471.1L471.1,79.8z M464.9,83h-2.7l-0.8-3.2h3.1L464.9,83z M460.8,77.6
					l-0.7-3h3.6l0.4,3H460.8z M478.9,88.2l0.4-2.9h2.5l-0.7,2.9H478.9z M476.7,88.2h-3.3v-2.9h3.7L476.7,88.2z M467.9,88.2l-0.4-2.9
					h3.7v2.9H467.9z M463.4,88.2l-0.7-2.9h2.5l0.4,2.9H463.4z"/>
				<polygon id="XMLID_93_" class="st3" points="487.4,72.3 485,72.3 486.6,65.8 493.6,65.8 493.6,68 488.4,68 				"/>
				<circle id="XMLID_92_" class="st3" cx="477" cy="94.4" r="2.5"/>
				<circle id="XMLID_91_" class="st3" cx="464.7" cy="94.4" r="2.5"/>
			</g>
		</g>
		<g id="XMLID_16_">
			<path id="XMLID_76_" class="st10" d="M484.3,120.5c-1.5-1.6-4.1-1.6-5.6,0l-5.5,5.5c-3.2,3.2-8.6,0.9-8.6-3.5V89
				c0-2.2-1.7-4-3.9-4c-1.1,0-2.1,0.4-2.8,1.1c-0.7,0.7-1.1,1.7-1.1,2.8V106c0-0.1,0-0.2,0-0.2c0-0.4-0.1-0.7-0.2-1.1
				c0-0.1,0-0.1-0.1-0.2c0-0.1-0.1-0.2-0.2-0.3c0-0.1-0.1-0.2-0.1-0.3c0-0.1-0.1-0.1-0.1-0.2c0-0.1-0.1-0.1-0.1-0.2
				c-0.1-0.1-0.1-0.2-0.2-0.3l0,0c-0.3-0.3-0.6-0.5-0.9-0.7c-0.6-0.3-1.2-0.5-1.9-0.5c-1.1,0-2.1,0.4-2.8,1.2
				c-0.7,0.7-1.2,1.7-1.2,2.8v1.3c0-0.1,0-0.2,0-0.3c0-0.1,0-0.3-0.1-0.4c0-0.1,0-0.2-0.1-0.3c0-0.1,0-0.1-0.1-0.2
				c0-0.1-0.1-0.2-0.1-0.3v0c0-0.1-0.1-0.2-0.1-0.3l0-0.1c-0.1-0.1-0.1-0.2-0.2-0.3c-0.1-0.1-0.1-0.2-0.2-0.3
				c-0.1-0.1-0.2-0.2-0.2-0.3h0c-0.3-0.3-0.6-0.5-1-0.7c-0.6-0.3-1.2-0.5-1.9-0.5c-1.1,0-2.1,0.4-2.8,1.2c-0.7,0.7-1.2,1.7-1.2,2.8
				v3.3c0-0.1,0-0.2,0-0.3c0-0.2,0-0.4-0.1-0.6c0-0.1,0-0.2-0.1-0.3c-0.1-0.2-0.2-0.4-0.3-0.6c0,0,0-0.1-0.1-0.1c0,0,0-0.1-0.1-0.1
				c0,0-0.1-0.1-0.1-0.1l0,0c-0.1-0.1-0.1-0.2-0.2-0.3c-0.1-0.1-0.2-0.2-0.2-0.3l-0.1-0.1c-0.2-0.2-0.4-0.4-0.7-0.6
				c-0.6-0.4-1.3-0.6-2.1-0.6c-2.2,0-3.9,1.8-3.9,3.9v19.3c0,1.2,0.2,2.4,0.6,3.5c0.4,1.1,1,2.2,1.7,3.1l0,0
				c2.3,2.8,3.6,6.3,3.6,9.9v6.7h25.5v-5.8c0-2.6,1.5-5,3.8-6.2l0,0c2.3-1.2,4.5-2.9,6.3-4.8l8.6-9.3l1-1.1c0.5-0.5,0.8-1.1,0.9-1.8
				C485.6,122.9,485.2,121.5,484.3,120.5"/>
			<path id="XMLID_23_" class="st11" d="M441.1,110.6v8.7c0,0.3-0.2,0.5-0.5,0.5c-0.3,0-0.5-0.2-0.5-0.5v-11.5
				C440.6,108.6,441.1,109.6,441.1,110.6z"/>
			<path id="XMLID_22_" class="st11" d="M448.9,107.3v9.9c0,0.3-0.2,0.5-0.5,0.5c-0.3,0-0.5-0.2-0.5-0.5v-12.6
				C448.5,105.3,448.9,106.3,448.9,107.3z"/>
			<path id="XMLID_21_" class="st11" d="M456.8,106v12.6c0,0.3-0.2,0.5-0.5,0.5c-0.3,0-0.5-0.2-0.5-0.5v-15.4
				C456.4,104,456.8,104.9,456.8,106z"/>
			<path id="XMLID_20_" class="st12" d="M463.2,88.8c0-1.4-1.1-2.5-2.5-2.5c-1.4,0-2.5,1.1-2.5,2.5c0,1.4,1.1,1.5,2.5,1.5
				C462.1,90.3,463.2,90.2,463.2,88.8z"/>
			<path id="XMLID_19_" class="st3" d="M485.3,124.2c-0.1,0.6-0.5,1.3-0.9,1.8l-1,1.1l-2.8-2.8C481.8,122.9,483.9,122.9,485.3,124.2
				"/>
			<path id="XMLID_17_" class="st12" d="M482.9,123.2c-0.9,0-1.7,0.3-2.4,1l2.8,2.8l0,0l1-1.1c0.4-0.4,0.6-0.9,0.8-1.3
				c0-0.1,0.1-0.3,0.1-0.4C484.6,123.5,483.8,123.2,482.9,123.2"/>
		</g>
		<g id="XMLID_183_">
			<g id="XMLID_233_">
				<path id="XMLID_234_" class="st13" d="M526.6,106.1l-4.8,3.4l-6.2,4.4v32.4h22.1v-32.4L526.6,106.1z M526.6,118.2
					c-2.1,0-3.8-1.7-3.8-3.8s1.7-3.8,3.8-3.8s3.8,1.7,3.8,3.8S528.7,118.2,526.6,118.2z"/>
			</g>
			<path id="XMLID_232_" class="st1" d="M528.3,35.4V113c0,0.9-0.7,1.7-1.7,1.7c-0.9,0-1.7-0.7-1.7-1.7V35.4H528.3z"/>
		</g>
		<g id="XMLID_176_">
			<path id="XMLID_180_" class="st14" d="M396.2,87.8c-9.1,0-16.4,7.3-16.4,16.4c0,9.1,7.3,16.4,16.4,16.4c9.1,0,16.4-7.3,16.4-16.4
				C412.6,95.2,405.2,87.8,396.2,87.8z M396.2,99.3c-2.2,0-4-1.8-4-4c0-2.2,1.8-4,4-4c2.2,0,4,1.8,4,4
				C400.2,97.5,398.4,99.3,396.2,99.3z"/>
			<path id="XMLID_179_" class="st13" d="M397.9,31.3v63c0,0.9-0.7,1.7-1.7,1.7c-0.9,0-1.7-0.7-1.7-1.7v-63H397.9z"/>
		</g>
		<g id="XMLID_164_">
			<g id="XMLID_172_">
				<path id="XMLID_173_" class="st15" d="M554.6,93.8l-3.6,2.5l-4.7,3.3v32.1h16.4V99.6L554.6,93.8z M554.6,102.8
					c-1.6,0-2.8-1.3-2.8-2.8c0-1.6,1.3-2.8,2.8-2.8c1.6,0,2.8,1.3,2.8,2.8C557.4,101.5,556.1,102.8,554.6,102.8z"/>
			</g>
			<path id="XMLID_171_" class="st14" d="M556.2,21.1v77.6c0,0.9-0.7,1.7-1.7,1.7c-0.9,0-1.7-0.7-1.7-1.7V21.1H556.2z"/>
		</g>
		<text transform="matrix(1 0 0 1 518.4502 139.5)" class="st3 st16 st17">%</text>
		<text transform="matrix(1 0 0 1 388.041 114.8359)" class="st3 st16 st17">%</text>
		<text transform="matrix(1 0 0 1 549.3857 126.3115)" class="st3 st16 st17">$</text>
		<path class="st18" d="M385.1,47.2c0,7,5.7,12.6,12.6,12.6c7,0,12.6-5.7,12.6-12.6c0,7,5.7,12.6,12.6,12.6c7,0,12.6-5.7,12.6-12.6
			c0,7,5.7,12.6,12.6,12.6c7,0,12.6-5.7,12.6-12.6c0,7,5.7,12.6,12.6,12.6c7,0,12.6-5.7,12.6-12.6c0,7,5.7,12.6,12.6,12.6
			c7,0,12.6-5.7,12.6-12.6c0,7,5.7,12.6,12.6,12.6c7,0,12.6-5.7,12.6-12.6c0,7,5.7,12.6,12.6,12.6c7,0,12.6-5.7,12.6-12.6
			c0,7,5.7,12.6,12.6,12.6s12.6-5.7,12.6-12.6c0,6.7,5.2,12.1,11.7,12.6V24.3c0-4.8-3.9-8.7-8.7-8.7H356.8c-4.8,0-8.7,3.9-8.7,8.7
			v35.4c6.5-0.5,11.7-5.9,11.7-12.6c0,7,5.7,12.6,12.6,12.6S385.1,54.1,385.1,47.2z"/>
		<g>
			<rect x="348.2" y="0.2" class="st19" width="250.6" height="15.4"/>
			<polygon class="st20" points="309.4,32.7 637.6,32.7 598.8,15.7 348.2,15.7 			"/>
			<polygon class="st20" points="561.8,32.7 587.1,32.7 560.2,15.7 541,15.7 			"/>
			<polygon class="st20" points="511.4,32.7 536.6,32.7 521.7,15.7 502.4,15.7 			"/>
			<polygon class="st20" points="460.9,32.7 486.1,32.7 483.1,15.7 463.8,15.7 			"/>
			<polygon class="st20" points="410.4,32.7 435.6,32.7 444.6,15.7 425.3,15.7 			"/>
			<polygon class="st20" points="359.9,32.7 385.1,32.7 406,15.7 386.7,15.7 			"/>
			<polygon class="st20" points="309.4,32.7 334.6,32.7 367.5,15.7 348.2,15.7 			"/>
			<path class="st21" d="M359.9,32.7c0,7-5.7,12.6-12.6,12.6c-7,0-12.6-5.7-12.6-12.6H359.9z"/>
			<path class="st19" d="M309.4,32.7c0,7,5.7,12.6,12.6,12.6c7,0,12.6-5.7,12.6-12.6H309.4z"/>
			<path class="st21" d="M410.4,32.7c0,7-5.7,12.6-12.6,12.6c-7,0-12.6-5.7-12.6-12.6H410.4z"/>
			<path class="st19" d="M359.9,32.7c0,7,5.7,12.6,12.6,12.6s12.6-5.7,12.6-12.6H359.9z"/>
			<path class="st21" d="M460.9,32.7c0,7-5.7,12.6-12.6,12.6c-7,0-12.6-5.7-12.6-12.6H460.9z"/>
			<path class="st19" d="M410.4,32.7c0,7,5.7,12.6,12.6,12.6c7,0,12.6-5.7,12.6-12.6H410.4z"/>
			<path class="st21" d="M511.4,32.7c0,7-5.7,12.6-12.6,12.6c-7,0-12.6-5.7-12.6-12.6H511.4z"/>
			<path class="st19" d="M460.9,32.7c0,7,5.7,12.6,12.6,12.6c7,0,12.6-5.7,12.6-12.6H460.9z"/>
			<path class="st21" d="M561.9,32.7c0,7-5.7,12.6-12.6,12.6c-7,0-12.6-5.7-12.6-12.6H561.9z"/>
			<path class="st19" d="M511.4,32.7c0,7,5.7,12.6,12.6,12.6c7,0,12.6-5.7,12.6-12.6H511.4z"/>
			<path class="st21" d="M612.3,32.7c0,7-5.7,12.6-12.6,12.6c-7,0-12.6-5.7-12.6-12.6H612.3z"/>
			<path class="st19" d="M561.9,32.7c0,7,5.7,12.6,12.6,12.6s12.6-5.7,12.6-12.6H561.9z"/>
			<path class="st19" d="M612.3,32.7c0,7,5.7,12.6,12.6,12.6c7,0,12.6-5.7,12.6-12.6H612.3z"/>
			<polygon class="st22" points="612.3,32.7 587.1,32.7 560.2,15.7 579.5,15.7 			"/>
			<polygon class="st22" points="561.8,32.7 536.6,32.7 521.7,15.7 541,15.7 			"/>
			<polygon class="st22" points="511.4,32.7 486.1,32.7 483.1,15.7 502.4,15.7 			"/>
			<polygon class="st22" points="460.9,32.7 435.6,32.7 444.6,15.7 463.8,15.7 			"/>
			<polygon class="st22" points="410.4,32.7 385.1,32.7 406,15.7 425.3,15.7 			"/>
			<polygon class="st22" points="359.9,32.7 334.6,32.7 367.5,15.7 386.7,15.7 			"/>
		</g>
	</g>
	<g>
		<rect x="598.9" y="128" class="st0" width="117.1" height="129.9"/>
		<rect x="598.9" y="253.5" class="st1" width="117.1" height="6.5"/>
		<rect x="598.9" y="128" class="st1" width="117.1" height="9.9"/>
		<rect x="625.4" y="237.1" class="st3" width="7.8" height="1.6"/>
		<rect x="661.6" y="237.1" class="st14" width="7.8" height="1.6"/>
		<rect x="625.4" y="232.1" class="st3" width="32.7" height="1.6"/>
		<rect x="617.6" y="246.9" class="st23" width="4.1" height="1.6"/>
		<rect x="617.6" y="148" class="st23" width="4.9" height="1.6"/>
		<rect x="617.6" y="157.9" class="st24" width="5.6" height="1.6"/>
		<rect x="625.4" y="157.9" class="st3" width="15.5" height="1.6"/>
		<rect x="621.9" y="162.8" class="st3" width="8.4" height="1.6"/>
		<rect x="655.7" y="162.8" class="st3" width="8.4" height="1.6"/>
		<rect x="665.9" y="162.8" class="st14" width="8.4" height="1.6"/>
		<rect x="633.3" y="162.8" class="st3" width="19.4" height="1.6"/>
		<rect x="625.4" y="167.8" class="st25" width="11.3" height="1.6"/>
		<rect x="639.9" y="167.8" class="st3" width="24.2" height="1.6"/>
		<rect x="630.4" y="177.7" class="st24" width="7" height="1.6"/>
		<rect x="630.4" y="182.6" class="st23" width="7" height="1.6"/>
		<rect x="640.5" y="177.7" class="st3" width="21.5" height="1.6"/>
		<rect x="640.5" y="182.6" class="st3" width="29.9" height="1.6"/>
		<rect x="635.4" y="187.6" class="st25" width="7.1" height="1.6"/>
		<rect x="640.5" y="192.5" class="st3" width="47.9" height="1.6"/>
		<rect x="640.5" y="197.5" class="st3" width="15.8" height="1.6"/>
		<rect x="659.2" y="197.5" class="st25" width="7.1" height="1.6"/>
		<rect x="668.7" y="197.5" class="st3" width="7.1" height="1.6"/>
		<rect x="622.6" y="202.4" class="st23" width="4.9" height="1.6"/>
		<rect x="624.7" y="207.4" class="st25" width="12.1" height="1.6"/>
		<rect x="690.9" y="207.4" class="st25" width="8.5" height="1.6"/>
		<rect x="639.7" y="207.4" class="st3" width="47.6" height="1.6"/>
		<rect x="631.8" y="212.3" class="st3" width="40.4" height="1.6"/>
		<rect x="631.8" y="217.3" class="st3" width="48.8" height="1.6"/>
		<rect x="629" y="222.2" class="st25" width="5.7" height="1.6"/>
		<rect x="622.6" y="227.2" class="st14" width="8.5" height="1.6"/>
		<rect x="636.3" y="237.1" class="st3" width="21.8" height="1.6"/>
		<circle class="st26" cx="605.3" cy="132.9" r="1.8"/>
		<circle class="st27" cx="611.6" cy="132.9" r="1.8"/>
		<circle class="st28" cx="618" cy="132.9" r="1.8"/>
	</g>
	<rect x="453.1" y="212.7" class="st8" width="63.6" height="3"/>
	<g>
		<path class="st1" d="M695.4,115l-14.9-9.9l0-3.8L695.3,90l0,6.6l-9.1,6.3l9.2,5.5L695.4,115z"/>
		<path class="st1" d="M711.6,86.1l-7.9,33.3l-5.1,0l7.9-33.3L711.6,86.1z"/>
		<path class="st1" d="M714.7,108.4l9.1-5.6l-9.2-6.2l0-6.6l14.9,11.1l0,3.8l-14.8,10L714.7,108.4z"/>
	</g>
	<g>
		<path class="st4" d="M228.5,233.3l3.9,4.7c0.4-0.3,0.7-0.6,0.9-1l29.4,34.9c3.8,4.5,14.7,8.2,24.2,8.2h31.5
			c9.5,0,14.1-3.7,10.3-8.2l-29.4-34.9c0.8,0.4,1.7,0.7,2.6,1l-3.9-4.7c1.9,0.6,4.1,1,6.1,1c4.5,0,6.6-1.8,4.7-4.1l-18.1-5.5l0,0
			l-4.2-5h-69.4l4.2,5l0,0l-8.8,5.5l0,0c1.9,2.3,7.1,4.1,11.6,4.1C226.1,234.2,227.6,233.9,228.5,233.3z"/>
		<g>
			<g>
				<g>
					<g>
						<path class="st29" d="M286.2,138.1h41.6c7.9,0,14.3,6.5,14.3,14.3l0,111.8c0,7.9-6.5,14.3-14.3,14.3h-41.6
							c-7.9,0-14.3-6.5-14.3-14.3l0-111.8C271.8,144.6,278.3,138.1,286.2,138.1z"/>
						<path class="st5" d="M286.2,138.1h41.6c7.9,0,14.3,6.5,14.3,14.3l0,111.8c0,7.9-6.5,14.3-14.3,14.3h-41.6
							c-7.9,0-14.3-6.5-14.3-14.3l0-111.8C271.8,144.6,278.3,138.1,286.2,138.1z"/>
					</g>
					<rect x="277" y="152.8" class="st6" width="60" height="106.3"/>
					<path class="st7" d="M293.5,145.9h27c0.7,0,1.3-0.6,1.3-1.3v0c0-0.7-0.6-1.3-1.3-1.3h-27c-0.7,0-1.3,0.6-1.3,1.3v0
						C292.2,145.3,292.8,145.9,293.5,145.9z"/>
					<circle class="st7" cx="307" cy="269" r="5.7"/>
				</g>
				<rect x="277" y="152.8" class="st4" width="60" height="6.6"/>
				<rect x="291" y="169.1" class="st7" width="31.9" height="7.7"/>
				<rect x="281.8" y="187.3" class="st7" width="50.5" height="42.3"/>
				<rect x="285.9" y="179.8" class="st4" width="42.3" height="3.2"/>
				<rect x="277" y="253.6" class="st4" width="60" height="5.5"/>
				<rect x="280.9" y="234.1" class="st4" width="52.5" height="2.4"/>
				<rect x="280.9" y="238.3" class="st4" width="52.5" height="2.4"/>
				<rect x="280.9" y="242.5" class="st4" width="33.2" height="2.4"/>
				<g>
					<path class="st3" d="M305.2,198.1c-1.8,0-1.8,0-1.8,0c0,3.8,0,3.8,0,3.8c9.3,0,9.3,0,9.3,0c0-3.8,0-3.8,0-3.8
						c-1.8,0-1.8,0-1.8,0c0-5.6,0-5.6,0-5.6c-3.3,0-5.9,0-9.3,0c0,1.8,0,1.8,0,1.8c3.7,0,3.7,0,3.7,0V198.1L305.2,198.1z"/>
					<polygon class="st3" points="305.2,209.4 310.8,209.4 310.8,213.1 305.2,213.1 					"/>
					<polygon class="st3" points="305.2,209.4 310.8,209.4 310.8,213.1 305.2,213.1 					"/>
					<path class="st30" d="M294,216.9c-1.8,0-1.8,0-1.8,0c0,1.8,0,1.8,0,1.8c0,3.1,2.5,5.6,5.6,5.6c1.8,0,1.8,0,1.8,0
						c0-1.8,0-1.8,0-1.8C299.6,219.3,297.1,216.9,294,216.9L294,216.9z"/>
					<path class="st3" d="M313.9,203.8c-11.9,0-11.9,0-11.9,0c-2.4,2.4-2.4,2.4-2.4,2.4c0,11.4,0,11.4,0,11.4c0.3,0.5,0.8,1,1.1,1.6
						c1-1.4,2.6-2.3,4.6-2.3c3.7,0,3.7,0,3.7,0c0,1.7,0,2.1,0,3.7c0,1.4-0.6,2.8-1.5,3.7c8.8,0,8.8,0,8.8,0c0-18.1,0-18.1,0-18.1
						L313.9,203.8z M312.7,215c-9.3,0-9.3,0-9.3,0c0-7.6,0-7.6,0-7.6c9.3,0,9.3,0,9.3,0V215z"/>
					<path class="st30" d="M301.4,222.4c0,1.8,0,1.8,0,1.8c1.8,0,1.8,0,1.8,0c2.1,0,3.7-1.7,3.7-3.7c0-1.8,0-1.8,0-1.8
						c-1.8,0-1.8,0-1.8,0C303.1,218.8,301.4,220.4,301.4,222.4L301.4,222.4z"/>
				</g>
			</g>
			<path class="st18" d="M268.9,169c1.5-1.4,2.5-3.4,2.5-5.7c0,4.1,3.2,7.5,7.1,7.5c3.9,0,7.1-3.3,7.1-7.5c0,4.1,3.2,7.5,7.1,7.5
				c3.9,0,7.1-3.3,7.1-7.5c0,4.1,3.2,7.5,7.1,7.5c3.9,0,7.1-3.3,7.1-7.5c0,4.1,3.2,7.5,7.1,7.5c3.9,0,7.1-3.3,7.1-7.5
				c0,4.1,3.2,7.5,7.1,7.5c3.9,0,7.1-3.3,7.1-7.5c0,2.3,1,4.3,2.5,5.7v-11.6c0-5.2-2.6-9.8-6.5-12.7h-62.8
				c-3.9,2.9-6.5,7.5-6.5,12.7V169z"/>
			<rect x="268.9" y="135.6" class="st19" width="75.8" height="9.1"/>
			<polygon class="st20" points="257.2,154.8 356.5,154.8 344.7,144.7 268.9,144.7 			"/>
			<polygon class="st20" points="328.1,154.8 342.3,154.8 333.9,144.7 323.1,144.7 			"/>
			<polygon class="st20" points="299.7,154.8 313.9,154.8 312.2,144.7 301.4,144.7 			"/>
			<polygon class="st20" points="271.4,154.8 285.6,154.8 290.6,144.7 279.8,144.7 			"/>
			<path class="st21" d="M271.4,154.8c0,4.1-3.2,7.5-7.1,7.5s-7.1-3.3-7.1-7.5H271.4z"/>
			<path class="st21" d="M299.7,154.8c0,4.1-3.2,7.5-7.1,7.5c-3.9,0-7.1-3.3-7.1-7.5H299.7z"/>
			<path class="st19" d="M271.4,154.8c0,4.1,3.2,7.5,7.1,7.5c3.9,0,7.1-3.3,7.1-7.5H271.4z"/>
			<path class="st21" d="M328.1,154.8c0,4.1-3.2,7.5-7.1,7.5c-3.9,0-7.1-3.3-7.1-7.5H328.1z"/>
			<path class="st19" d="M299.7,154.8c0,4.1,3.2,7.5,7.1,7.5c3.9,0,7.1-3.3,7.1-7.5H299.7z"/>
			<path class="st21" d="M356.5,154.8c0,4.1-3.2,7.5-7.1,7.5c-3.9,0-7.1-3.3-7.1-7.5H356.5z"/>
			<path class="st19" d="M328.1,154.8c0,4.1,3.2,7.5,7.1,7.5c3.9,0,7.1-3.3,7.1-7.5H328.1z"/>
			<polygon class="st22" points="356.5,154.8 342.3,154.8 333.9,144.7 344.7,144.7 			"/>
			<polygon class="st22" points="328.1,154.8 313.9,154.8 312.2,144.7 323.1,144.7 			"/>
			<polygon class="st22" points="299.7,154.8 285.6,154.8 290.6,144.7 301.4,144.7 			"/>
			<polygon class="st22" points="271.4,154.8 257.2,154.8 268.9,144.7 279.8,144.7 			"/>
		</g>
	</g>
	<g>
		<polygon class="st20" points="170.1,108.4 190.3,108.4 178.4,94 162.9,94 		"/>
		<polygon class="st20" points="129.7,108.4 149.9,108.4 147.5,94 132.1,94 		"/>
		<g>
			<path class="st4" d="M34.7,181.5l4.9,5.8c0.5-0.4,0.9-0.8,1.1-1.3l36.5,43.3c4.7,5.6,18.2,10.2,30,10.2h60.9
				c11.8,0,17.6-4.6,12.8-10.2L144.4,186c1,0.5,2.1,0.9,3.2,1.3l-4.9-5.8c2.4,0.8,5.1,1.2,7.6,1.2c5.6,0,8.2-2.3,5.8-5.1l-22.5-6.8
				l0,0l-5.2-6.2h-108l5.2,6.2l0,0l-10.9,6.8l0,0c2.4,2.8,8.8,5.1,14.4,5.1C31.7,182.8,33.6,182.3,34.7,181.5z"/>
			<g>
				<g>
					<g>
						<path class="st31" d="M170.2,90.4h-60.9c-11.8,0-21.4,9.6-21.4,21.4v105.1c0,11.8,9.6,21.4,21.4,21.4h60.9
							c11.8,0,21.4-9.6,21.4-21.4V111.9C191.7,100.1,182,90.4,170.2,90.4z"/>
					</g>
					<path class="st5" d="M170.2,90.4h-60.9c-11.8,0-21.4,9.6-21.4,21.4v105.1c0,11.8,9.6,21.4,21.4,21.4h60.9
						c11.8,0,21.4-9.6,21.4-21.4V111.9C191.7,100.1,182,90.4,170.2,90.4z"/>
					<path class="st6" d="M184,102.8H95.6c-0.2,0-0.3,0.1-0.3,0.3v121.3c0,0.2,0.1,0.3,0.3,0.3H184c0.2,0,0.3-0.1,0.3-0.3V103.2
						C184.3,103,184.2,102.8,184,102.8z"/>
					<path class="st7" d="M151.2,94.1h-22.8c-0.6,0-1.1,0.5-1.1,1.1v0c0,0.6,0.5,1.1,1.1,1.1h22.8c0.6,0,1.1-0.5,1.1-1.1v0
						C152.3,94.6,151.8,94.1,151.2,94.1z"/>
					<circle class="st7" cx="139.8" cy="231.3" r="3.8"/>
				</g>
				<rect x="95.3" y="102.8" class="st6" width="89" height="121.9"/>
				<rect x="95.3" y="102.8" class="st4" width="89" height="7.6"/>
				<rect x="116.1" y="115.1" class="st7" width="47.4" height="11.9"/>
				<rect x="95.3" y="141.5" class="st7" width="89" height="43.2"/>
				<rect x="108.5" y="131.6" class="st4" width="62.7" height="5"/>
				<path class="st32" d="M178.7,160.8c-0.1-0.2-0.1-0.5,0.1-0.6c0.2-0.1,0.5-0.1,0.6,0.1l1.9,2.5c0,0,0,0,0,0.1l0,0l0,0l0,0
					c0,0,0,0,0,0l0,0l0,0l0,0l0,0c0,0,0,0,0,0l0,0l0,0l0,0v0v0v0l0,0l0,0l0,0l0,0l0,0l0,0l0,0l0,0l0,0l0,0l0,0l0,0c0,0,0,0,0,0.1
					l-1.9,2.5c-0.1,0.2-0.4,0.2-0.6,0.1c-0.2-0.1-0.2-0.4-0.1-0.6l1.7-2.3L178.7,160.8z"/>
				<path class="st32" d="M100.2,160.3c0.1-0.2,0.4-0.2,0.6-0.1c0.2,0.1,0.2,0.4,0.1,0.6l-1.7,2.3l1.7,2.3c0.1,0.2,0.1,0.5-0.1,0.6
					c-0.2,0.1-0.5,0.1-0.6-0.1l-1.9-2.5c0,0,0,0,0-0.1l0,0l0,0l0,0c0,0,0,0,0,0l0,0l0,0l0,0l0,0c0,0,0,0,0,0v0l0,0l0,0v0v0v0l0,0
					l0,0v0l0,0l0,0l0,0l0,0l0,0c0,0,0,0,0,0l0,0l0,0l0,0c0,0,0,0,0-0.1L100.2,160.3z"/>
				<g>
					<path class="st6" d="M152.6,165h1.1c3.1,0,3.2-3.5,0-3.5l-1.1,0v0.3l0,0c0.8,0,1.5,0.7,1.5,1.5s-0.7,1.5-1.5,1.5l0,0V165z
						 M127,165h25.5v-0.3c-0.8,0-1.5-0.7-1.5-1.5s0.7-1.5,1.5-1.5v-0.3c-8.5,0-17,0-25.5,0v0.3c0.8,0,1.5,0.7,1.5,1.5
						s-0.7,1.5-1.5,1.5V165z M126,165h1.1v-0.3c-0.8,0-1.5-0.7-1.5-1.5s0.7-1.5,1.5-1.5v-0.3l-1.1,0C122.7,161.5,122.9,165,126,165z
						"/>
					<circle class="st6" cx="141.8" cy="150.9" r="1.5"/>
					<path class="st6" d="M153.2,162.8l-10.1-11.2c-0.2-0.3-0.6-0.3-0.9-0.1l0,0c-0.3,0.2-0.3,0.6,0,0.9l10.1,11.2
						c0.2,0.3,0.6,0.3,0.9,0.1l0,0C153.4,163.5,153.4,163.1,153.2,162.8z"/>
					<circle class="st6" cx="137.9" cy="150.9" r="1.5"/>
					<path class="st6" d="M126.5,162.8l11-12.3c0.2-0.3,0.6-0.3,0.9-0.1l0,0c0.3,0.2,0.3,0.6,0.1,0.9l-11,12.3
						c-0.2,0.3-0.6,0.3-0.9,0.1l0,0C126.3,163.5,126.2,163.1,126.5,162.8z"/>
					<path class="st6" d="M148.3,166h5.2l-1.3,7.8c-0.3,1.7-1.1,2.9-3.7,2.9h-0.1v-2.3c0.4-0.2,0.6-0.5,0.7-1
						c0.1-0.9,0.2-1.8,0.4-2.7c0.1-0.9,0.2-1.8,0.4-2.7c0.1-0.6-0.4-1.1-1-1.1l0,0c-0.1,0-0.3,0-0.4,0.1V166z M144.1,166h4.2v1.1
						c-0.5,0.2-0.8,0.6-0.9,1c-0.1,0.9-0.2,1.8-0.3,2.7c-0.1,0.9-0.2,1.8-0.3,2.7c-0.1,0.6,0.4,1.1,0.9,1.1l0,0c0.2,0,0.3,0,0.5-0.1
						v2.3h-4.2v-2.3c0.5-0.1,0.8-0.5,0.9-1c0.1-0.9,0.1-1.8,0.2-2.7c0.1-0.9,0.1-1.8,0.2-2.7c0-0.6-0.4-1.1-1.1-1.1l0,0
						c-0.1,0-0.1,0-0.2,0V166z M139.8,166h4.3v1c-0.6,0.1-1,0.5-1,1.1c0,0.9-0.1,1.8-0.1,2.7c0,0.9-0.1,1.8-0.1,2.7
						c0,0.6,0.4,1.1,1,1.1l0,0c0.1,0,0.2,0,0.3,0v2.3h-4.3v-2.2c0.6,0,1.1-0.5,1.1-1.1c0-0.9,0-1.8,0-2.7c0-0.9,0-1.8,0-2.7
						c0-0.6-0.5-1.1-1.2-1.1l0,0h0V166z M135.5,166h4.3v1c-0.6,0-1.2,0.5-1.2,1.1c0,0.9,0,1.8,0,2.7c0,0.9,0,1.8,0,2.7
						c0,0.6,0.5,1.1,1.1,1.1l0,0h0v2.2h-4.3v-2.3c0.1,0,0.2,0,0.3,0l0,0c0.6,0,1-0.5,1-1.1c0-0.9-0.1-1.8-0.1-2.7
						c0-0.9-0.1-1.8-0.1-2.7c0-0.5-0.5-1-1-1.1V166z M131.3,166h4.2v1c-0.1,0-0.1,0-0.2,0l0,0c-0.6,0-1.1,0.5-1.1,1.1
						c0.1,0.9,0.1,1.8,0.2,2.7c0.1,0.9,0.1,1.8,0.2,2.7c0,0.5,0.4,0.9,0.9,1v2.3h-4.2v-2.3c0.2,0.1,0.3,0.1,0.5,0.1l0,0
						c0.6,0,1-0.5,0.9-1.1c-0.1-0.9-0.2-1.8-0.3-2.7c-0.1-0.9-0.2-1.8-0.3-2.7c0-0.5-0.4-0.9-0.9-1V166z M131.2,176.7
						c-2.6,0-3.4-1.3-3.7-2.9l-1.3-7.8h5.1v1.1c-0.1,0-0.3-0.1-0.4-0.1l0,0c-0.6,0-1.1,0.5-1,1.1c0.1,0.9,0.2,1.8,0.4,2.7
						c0.1,0.9,0.2,1.8,0.4,2.7c0.1,0.4,0.3,0.8,0.7,1v2.3H131.2z"/>
				</g>
				<g>
					<g>
						<path class="st33" d="M118.1,164h0.5c1.5,0,1.5-1.6,0-1.6l-0.5,0v0.1c0.4,0,0.7,0.3,0.7,0.7c0,0.4-0.3,0.7-0.7,0.7V164z
							 M106.2,164h12v-0.1c-0.4,0-0.7-0.3-0.7-0.7c0-0.4,0.3-0.7,0.7-0.7v-0.1c-4,0-8,0-12,0v0.1l0,0c0.4,0,0.7,0.3,0.7,0.7
							c0,0.4-0.3,0.7-0.7,0.7l0,0V164z M105.6,164h0.5v-0.1c-0.4,0-0.7-0.3-0.7-0.7c0-0.4,0.3-0.7,0.7-0.7v-0.1l-0.5,0
							C104.1,162.3,104.2,164,105.6,164z"/>
						<circle class="st33" cx="113" cy="157.4" r="0.7"/>
						<path class="st33" d="M118.4,163l-4.7-5.3c-0.1-0.1-0.3-0.1-0.4,0l0,0c-0.1,0.1-0.1,0.3,0,0.4l4.7,5.3c0.1,0.1,0.3,0.1,0.4,0
							l0,0C118.5,163.3,118.5,163.1,118.4,163z"/>
						<circle class="st33" cx="111.2" cy="157.4" r="0.7"/>
						<path class="st33" d="M105.9,163l5.1-5.7c0.1-0.1,0.3-0.1,0.4,0l0,0c0.1,0.1,0.1,0.3,0,0.4l-5.1,5.7c-0.1,0.1-0.3,0.1-0.4,0
							l0,0C105.8,163.3,105.8,163.1,105.9,163z"/>
						<path class="st33" d="M116.1,164.5h2.4l-0.6,3.6c-0.1,0.8-0.5,1.4-1.7,1.4h-0.1v-1.1c0.2-0.1,0.3-0.3,0.3-0.5
							c0.1-0.4,0.1-0.8,0.2-1.2c0.1-0.4,0.1-0.8,0.2-1.2c0-0.3-0.2-0.5-0.5-0.5l0,0c-0.1,0-0.1,0-0.2,0V164.5z M114.1,164.5h2v0.5
							c-0.2,0.1-0.4,0.3-0.4,0.5c0,0.4-0.1,0.8-0.1,1.2s-0.1,0.8-0.1,1.2c0,0.3,0.2,0.5,0.4,0.5l0,0c0.1,0,0.2,0,0.2-0.1v1.1h-2
							v-1.1c0.2-0.1,0.4-0.3,0.4-0.5c0-0.4,0.1-0.8,0.1-1.2c0-0.4,0.1-0.8,0.1-1.2c0-0.3-0.2-0.5-0.5-0.5l0,0c0,0-0.1,0-0.1,0V164.5
							z M112.1,164.5h2v0.5c-0.3,0-0.5,0.2-0.5,0.5c0,0.4,0,0.8-0.1,1.2c0,0.4,0,0.8-0.1,1.2c0,0.3,0.2,0.5,0.5,0.5l0,0
							c0,0,0.1,0,0.1,0v1.1h-2v-1c0.3,0,0.5-0.2,0.5-0.5c0-0.4,0-0.8,0-1.2c0-0.4,0-0.8,0-1.2c0-0.3-0.2-0.5-0.5-0.5l0,0h0V164.5z
							 M110.1,164.5h2v0.5c-0.3,0-0.5,0.2-0.5,0.5c0,0.4,0,0.8,0,1.2c0,0.4,0,0.8,0,1.2c0,0.3,0.2,0.5,0.5,0.5l0,0l0,0v1h-2v-1.1
							c0,0,0.1,0,0.1,0l0,0c0.3,0,0.5-0.2,0.5-0.5c0-0.4,0-0.8-0.1-1.2c0-0.4,0-0.8-0.1-1.2c0-0.3-0.2-0.5-0.5-0.5V164.5z
							 M108.1,164.5h2v0.5c0,0-0.1,0-0.1,0l0,0c-0.3,0-0.5,0.2-0.5,0.5c0,0.4,0.1,0.8,0.1,1.2c0,0.4,0.1,0.8,0.1,1.2
							c0,0.2,0.2,0.4,0.4,0.5v1.1h-2v-1.1c0.1,0,0.2,0.1,0.2,0.1l0,0c0.3,0,0.5-0.2,0.4-0.5c0-0.4-0.1-0.8-0.1-1.2
							c0-0.4-0.1-0.8-0.1-1.2c0-0.2-0.2-0.4-0.4-0.5V164.5z M108.1,169.5c-1.2,0-1.6-0.6-1.7-1.4l-0.6-3.6h2.4v0.5
							c-0.1,0-0.1,0-0.2,0l0,0c-0.3,0-0.5,0.2-0.5,0.5c0.1,0.4,0.1,0.8,0.2,1.2c0.1,0.4,0.1,0.8,0.2,1.2c0,0.2,0.2,0.4,0.3,0.5
							L108.1,169.5L108.1,169.5z"/>
					</g>
					<g>
						<path class="st33" d="M173.5,164h0.5c1.5,0,1.5-1.6,0-1.6l-0.5,0v0.1c0.4,0,0.7,0.3,0.7,0.7c0,0.4-0.3,0.7-0.7,0.7V164z
							 M161.5,164h12v-0.1c-0.4,0-0.7-0.3-0.7-0.7c0-0.4,0.3-0.7,0.7-0.7v-0.1c-4,0-8,0-12,0v0.1c0.4,0,0.7,0.3,0.7,0.7
							c0,0.4-0.3,0.7-0.7,0.7V164z M161,164h0.5v-0.1c-0.4,0-0.7-0.3-0.7-0.7c0-0.4,0.3-0.7,0.7-0.7v-0.1l-0.5,0
							C159.5,162.3,159.5,164,161,164z"/>
						<circle class="st33" cx="168.4" cy="157.4" r="0.7"/>
						<path class="st33" d="M173.7,163l-4.7-5.3c-0.1-0.1-0.3-0.1-0.4,0l0,0c-0.1,0.1-0.1,0.3,0,0.4l4.7,5.3c0.1,0.1,0.3,0.1,0.4,0
							l0,0C173.8,163.3,173.8,163.1,173.7,163z"/>
						<circle class="st33" cx="166.6" cy="157.4" r="0.7"/>
						<path class="st33" d="M161.2,163l5.1-5.7c0.1-0.1,0.3-0.1,0.4,0l0,0c0.1,0.1,0.1,0.3,0,0.4l-5.1,5.7c-0.1,0.1-0.3,0.1-0.4,0
							l0,0C161.1,163.3,161.1,163.1,161.2,163z"/>
						<path class="st33" d="M171.5,164.5h2.4l-0.6,3.6c-0.1,0.8-0.5,1.4-1.7,1.4h-0.1v-1.1c0.2-0.1,0.3-0.3,0.3-0.5
							c0.1-0.4,0.1-0.8,0.2-1.2c0.1-0.4,0.1-0.8,0.2-1.2c0-0.3-0.2-0.5-0.5-0.5l0,0c-0.1,0-0.1,0-0.2,0V164.5z M169.5,164.5h2v0.5
							c-0.2,0.1-0.4,0.3-0.4,0.5c0,0.4-0.1,0.8-0.1,1.2c0,0.4-0.1,0.8-0.1,1.2c0,0.3,0.2,0.5,0.4,0.5l0,0c0.1,0,0.2,0,0.2-0.1v1.1
							h-2v-1.1c0.2-0.1,0.4-0.3,0.4-0.5c0-0.4,0.1-0.8,0.1-1.2c0-0.4,0.1-0.8,0.1-1.2c0-0.3-0.2-0.5-0.5-0.5l0,0c0,0-0.1,0-0.1,0
							V164.5z M167.5,164.5h2v0.5c-0.3,0-0.5,0.2-0.5,0.5c0,0.4,0,0.8-0.1,1.2c0,0.4,0,0.8-0.1,1.2c0,0.3,0.2,0.5,0.5,0.5l0,0
							c0,0,0.1,0,0.1,0v1.1h-2v-1c0.3,0,0.5-0.2,0.5-0.5c0-0.4,0-0.8,0-1.2c0-0.4,0-0.8,0-1.2c0-0.3-0.2-0.5-0.5-0.5l0,0l0,0V164.5z
							 M165.5,164.5h2v0.5c-0.3,0-0.5,0.2-0.5,0.5c0,0.4,0,0.8,0,1.2c0,0.4,0,0.8,0,1.2c0,0.3,0.2,0.5,0.5,0.5l0,0h0v1h-2v-1.1
							c0,0,0.1,0,0.1,0l0,0c0.3,0,0.5-0.2,0.5-0.5c0-0.4,0-0.8-0.1-1.2c0-0.4,0-0.8-0.1-1.2c0-0.3-0.2-0.5-0.5-0.5V164.5z
							 M163.5,164.5h2v0.5c0,0-0.1,0-0.1,0l0,0c-0.3,0-0.5,0.2-0.5,0.5c0,0.4,0.1,0.8,0.1,1.2c0,0.4,0.1,0.8,0.1,1.2
							c0,0.2,0.2,0.4,0.4,0.5v1.1h-2v-1.1c0.1,0,0.2,0.1,0.2,0.1l0,0c0.3,0,0.5-0.2,0.4-0.5c0-0.4-0.1-0.8-0.1-1.2
							c0-0.4-0.1-0.8-0.1-1.2c0-0.2-0.2-0.4-0.4-0.5V164.5z M163.4,169.5c-1.2,0-1.6-0.6-1.7-1.4l-0.6-3.6h2.4v0.5
							c-0.1,0-0.1,0-0.2,0l0,0c-0.3,0-0.5,0.2-0.5,0.5c0.1,0.4,0.1,0.8,0.2,1.2c0.1,0.4,0.1,0.8,0.2,1.2c0,0.2,0.2,0.4,0.3,0.5
							L163.4,169.5L163.4,169.5z"/>
					</g>
				</g>
				<rect x="100.7" y="187.8" class="st33" width="22.3" height="11.8"/>
				<rect x="128.6" y="187.8" class="st21" width="22.3" height="11.8"/>
				<rect x="156.6" y="187.8" class="st19" width="22.3" height="11.8"/>
				<rect x="95.3" y="218.4" class="st4" width="89" height="6.3"/>
				<rect x="100.7" y="201.2" class="st4" width="22.3" height="2.2"/>
				<rect x="100.7" y="205" class="st4" width="22.3" height="2.2"/>
				<rect x="100.7" y="208.8" class="st4" width="22.3" height="2.2"/>
				<rect x="100.7" y="212.6" class="st4" width="14.1" height="2.2"/>
				<rect x="128.6" y="201.2" class="st4" width="22.3" height="2.2"/>
				<rect x="128.6" y="205" class="st4" width="22.3" height="2.2"/>
				<rect x="128.6" y="208.8" class="st4" width="22.3" height="2.2"/>
				<rect x="128.6" y="212.6" class="st4" width="14.1" height="2.2"/>
				<rect x="156.6" y="201.2" class="st4" width="22.3" height="2.2"/>
				<rect x="156.6" y="205" class="st4" width="22.3" height="2.2"/>
				<rect x="156.6" y="208.8" class="st4" width="22.3" height="2.2"/>
				<rect x="156.6" y="212.6" class="st4" width="14.1" height="2.2"/>
			</g>
			<path class="st34" d="M85.8,123.1c2.2-2,3.5-4.8,3.5-8.1c0,5.9,4.5,10.6,10.1,10.6c5.6,0,10.1-4.8,10.1-10.6
				c0,5.9,4.5,10.6,10.1,10.6c5.6,0,10.1-4.8,10.1-10.6c0,5.9,4.5,10.6,10.1,10.6c5.6,0,10.1-4.8,10.1-10.6
				c0,5.9,4.5,10.6,10.1,10.6c5.6,0,10.1-4.8,10.1-10.6c0,5.9,4.5,10.6,10.1,10.6c5.6,0,10.1-4.8,10.1-10.6c0,3.2,1.4,6.1,3.5,8.1
				v-16.6c0-7.4-3.7-14-9.3-18.1H95.1c-5.6,4.1-9.3,10.7-9.3,18.1V123.1z"/>
			<rect x="85.8" y="81" class="st19" width="108" height="13"/>
			<polygon class="st20" points="69.1,108.4 210.5,108.4 193.8,94 85.8,94 			"/>
			<polygon class="st20" points="89.3,108.4 109.5,108.4 116.7,94 101.3,94 			"/>
			<path class="st21" d="M89.3,108.4c0,5.9-4.5,10.6-10.1,10.6c-5.6,0-10.1-4.8-10.1-10.6H89.3z"/>
			<path class="st21" d="M129.7,108.4c0,5.9-4.5,10.6-10.1,10.6c-5.6,0-10.1-4.8-10.1-10.6H129.7z"/>
			<path class="st19" d="M89.3,108.4c0,5.9,4.5,10.6,10.1,10.6c5.6,0,10.1-4.8,10.1-10.6H89.3z"/>
			<polygon class="st22" points="129.7,108.4 109.5,108.4 116.7,94 132.1,94 			"/>
			<polygon class="st22" points="89.3,108.4 69.1,108.4 85.8,94 101.3,94 			"/>
		</g>
		<path class="st21" d="M170.1,108.4c0,5.9-4.5,10.6-10.1,10.6c-5.6,0-10.1-4.8-10.1-10.6H170.1z"/>
		<path class="st19" d="M129.7,108.4c0,5.9,4.5,10.6,10.1,10.6c5.6,0,10.1-4.8,10.1-10.6H129.7z"/>
		<path class="st21" d="M210.5,108.4c0,5.9-4.5,10.6-10.1,10.6c-5.6,0-10.1-4.8-10.1-10.6H210.5z"/>
		<path class="st19" d="M170.1,108.4c0,5.9,4.5,10.6,10.1,10.6c5.6,0,10.1-4.8,10.1-10.6H170.1z"/>
		<polygon class="st22" points="210.5,108.4 190.3,108.4 178.4,94 193.8,94 		"/>
		<polygon class="st22" points="170.1,108.4 149.9,108.4 147.5,94 162.9,94 		"/>
	</g>
	<g>
		<path class="st1" d="M21.8,279.7c3.2,0.3,6.4-0.6,8.9-2.6l47.4-39c1.8-1.5,4.1-1.9,6.3-1.3c8.2,2.2,15.8,0.7,22-4.3
			c4.8-4,7.7-9.2,8.2-14.8c0.4-5-0.8-10-3.7-14.3c-0.4-0.6-1.2-1-1.9-1c-0.7-0.1-1.4,0.2-1.9,0.9l-9.9,13c-4.2-0.8-7.5-3.6-9.1-7.7
			l8.8-11.7c0.5-0.7,0.5-1.6,0.3-2.3c-0.3-0.7-0.9-1.3-1.7-1.4c-6.4-1-12.6,0.5-17.7,4.4c-5,3.8-8.2,9.5-8.9,15.8
			c-0.1,1.1,0,2.5,0.3,4.8c0.3,2.4-0.6,4.9-2.6,6.5l-48.5,37c-2.5,2-4.1,4.9-4.4,8C13.1,274.5,16.8,279.2,21.8,279.7z"/>
		<polygon class="st0" points="66.5,230.8 29.8,260.1 35,266.7 71,236.4 		"/>
	</g>
	<g>
		<polygon class="st0" points="762.1,160.1 767.2,175.2 772.5,177.6 800.9,230.9 806.2,228.1 777.8,174.8 778.7,169 769,156.4 		"/>
		<polygon class="st0" points="765.5,158.2 762.1,160.1 767.2,175.2 772.5,177.6 800.9,230.9 803.6,229.5 		"/>
		<path class="st1" d="M816.9,274.9L797,237.6l17-9l19.9,37.3c2.5,4.7,0.7,10.5-4,13l0,0l0,0C825.2,281.4,819.4,279.6,816.9,274.9
			C816.9,274.9,816.9,274.9,816.9,274.9z"/>
		
			<rect x="819.7" y="232.4" transform="matrix(0.8822 -0.4708 0.4708 0.8822 -21.9557 416.3105)" class="st3" width="3.2" height="39.3"/>
		<path class="st1" d="M797,237.6l19.9,37.3c2.5,4.7,8.3,6.5,13,4l0,0l-24.4-45.8L797,237.6z"/>
		
			<rect x="811" y="237" transform="matrix(0.8822 -0.4708 0.4708 0.8822 -25.136 412.7943)" class="st3" width="3.2" height="39.3"/>
		<path class="st1" d="M797.7,234.9L797.7,234.9c-0.5-1-0.2-2.3,0.9-2.8l9.9-5.3c1-0.5,2.3-0.2,2.8,0.9l0,0c0.5,1,0.2,2.3-0.9,2.8
			l-9.9,5.3C799.5,236.3,798.3,235.9,797.7,234.9z"/>
		<path class="st1" d="M810.4,230.5c1-0.5,1.4-1.8,0.8-2.8c-0.5-1-1.8-1.4-2.8-0.9l-4.9,2.6l2,3.7L810.4,230.5z"/>
	</g>
	<path class="st1" d="M254.1,39.3c-3.6-4.5-9.1-7.3-15.3-7.3c-10.9,0-19.8,8.9-19.8,19.8c0,3.9,1.1,7.5,3.1,10.7
		c2.3,3.6,5.8,6.5,10,8c0.2,0.1,0.4,0.1,0.6,0.1c0.8,0,1.5-0.5,1.7-1.2c0.3-1-0.2-2-1.1-2.3c-2.6-0.9-4.9-2.5-6.7-4.5
		c-2.5-2.9-4.1-6.6-4.1-10.7c0-8.9,7.2-16.1,16.1-16.1c7.2,0,13.3,4.6,15.3,11.2c0.3,1.1,0.6,2.2,0.7,3.4c0.1,1,1,1.8,2,1.7
		c1-0.1,1.8-1,1.7-2C258.1,45.9,256.5,42.2,254.1,39.3z"/>
	<path class="st1" d="M236.5,61c-4.3-1-7.3-4.8-7.3-9.2c0-5.2,4.3-9.5,9.5-9.5c4.7,0,8.7,3.5,9.4,8.2c0.1,1,1,1.6,2,1.5
		c1-0.1,1.6-1,1.5-2c-0.9-6.4-6.4-11.2-12.9-11.2c-7.2,0-13,5.8-13,13c0,4.1,1.9,7.8,5,10.3c1.4,1.1,3.1,2,5,2.4c0.1,0,0.3,0,0.4,0
		c0.8,0,1.5-0.5,1.7-1.4c0.1-0.4,0-0.8-0.1-1.1C237.5,61.5,237.1,61.1,236.5,61z"/>
	<g>
		<path class="st1" d="M254.9,68.5c-0.5,0.5-1.4,0.5-1.9,0l-6.4-6.5c-0.5-0.5-0.5-1.4,0-1.9s1.4-0.5,1.9,0l6.4,6.5
			C255.5,67.2,255.5,68,254.9,68.5z"/>
		<g>
			<path class="st1" d="M235,49l9.3,22.5c0.4,0.9,1.6,0.8,1.9-0.1l2.3-8.7c0.1-0.3,0.4-0.6,0.7-0.7l8.7-2.2c0.9-0.2,1-1.5,0.1-1.9
				l-22.4-9.5C235.2,48.1,234.8,48.5,235,49z"/>
		</g>
	</g>
	<g>
		<polygon class="st1" points="816.3,78.6 829.9,78.6 829.9,45.2 797.1,45.2 797.1,58.7 792.5,58.7 792.5,40 835,40 835,83.4 
			816.3,83.4 816.3,78.6 		"/>
		<polygon class="st0" points="816.3,78.6 829.9,78.6 829.9,45.2 797.1,45.2 797.1,58.7 792.5,58.7 792.5,40 835,40 835,83.4 
			816.3,83.4 816.3,78.6 		"/>
		<path class="st1" d="M806.1,86.9c-1.7-5.2-1.7-5.2-1.7-5.2c9.8-6.5,14.9-15.2,14.5-26c-2.1,6.1-8.9,13.9-17.9,16.5
			c-2.1-5.2-2.1-5.2-2.1-5.2c-8.9,14.8-8.9,14.8-8.9,14.8L806.1,86.9z"/>
		<path class="st1" d="M815.9,55.6c-0.4,1.3-2.1,3.5-3.4,4.8c-30.6,0-30.6,0-30.6,0c0,33.4,0,33.4,0,33.4c32.8,0,32.8,0,32.8,0
			c0-16.9,0-16.9,0-16.9c2.1-3,3.8-6.5,4.7-10c0,32.1,0,32.1,0,32.1c-42.5,0-42.5,0-42.5,0c0-43.4,0-43.4,0-43.4H815.9z"/>
	</g>
</g>
<g id="color_palette" class="st35">
	<rect x="845.1" y="148.6" class="st36" width="66.9" height="30.3"/>
	<rect x="845.1" y="89.8" class="st37" width="66.9" height="30.3"/>
	<rect x="845.1" y="0" class="st38" width="66.9" height="30.3"/>
	<rect x="844.8" y="30" class="st39" width="66.9" height="30.3"/>
	<rect x="845.1" y="178.6" class="st40" width="66.9" height="30.3"/>
	<rect x="844.8" y="59.8" class="st41" width="66.9" height="30.3"/>
	<rect x="845.1" y="118.8" class="st42" width="66.9" height="30.3"/>
	<rect x="911.6" y="148.6" class="st43" width="66.9" height="30.3"/>
	<rect x="911.6" y="59.8" class="st44" width="66.9" height="30.3"/>
	<rect x="911.6" y="178.6" class="st45" width="66.9" height="30.3"/>
	<rect x="845.1" y="207.6" class="st46" width="66.9" height="30.3"/>
	<rect x="911.6" y="207.6" class="st47" width="66.9" height="30.3"/>
	<rect x="911.6" y="237.6" class="st48" width="66.9" height="30.3"/>
	<rect x="911.6" y="265.6" class="st49" width="66.9" height="30.3"/>
	<rect x="911.6" y="89.8" class="st50" width="66.9" height="30.3"/>
	<rect x="911.6" y="30" class="st51" width="66.9" height="30.3"/>
	<rect x="911.6" y="118.8" class="st52" width="66.9" height="30.3"/>
	<rect x="911.6" y="0" class="st53" width="66.9" height="30.3"/>
</g>
</svg>
