<svg version="1" xmlns="http://www.w3.org/2000/svg" width="666.667" height="666.667" viewBox="0 0 500.000000 500.000000"><path d="M0 250v250h500V0H0v250zm235.2-81.2c7.9 3.8 14.9 11 18.6 19 2.3 4.9 2.7 7 2.7 14.7 0 8.2-.3 9.7-3.3 15.7-3.8 7.8-11.1 14.9-19.2 18.7-4.8 2.2-6.8 2.6-15.5 2.6s-10.7-.3-15.7-2.7c-8-3.7-15.2-10.7-19.1-18.7-2.9-5.9-3.2-7.4-3.2-15.6 0-7.7.4-9.8 2.7-14.7 4.7-10 13.7-18 24.1-21.4 2.6-.9 7.4-1.3 12.8-1.1 7.4.3 9.6.8 15.1 3.5zm81.8 33.7V239h-3.5c-3.5 0-3.5 0-3.5-4.4v-4.4l-3.2 3c-4.9 4.6-10.4 6.8-17.4 6.8-11.7 0-21-5.5-26.1-15.4-3.8-7.3-3.8-17.9-.1-25.2 5-9.5 12.6-14.5 23.4-15.2 8.5-.5 12.8.7 18.9 5.4l4.5 3.4v-27h7v36.5zm61 0V239h-8v-8.2l-3.7 3.2c-5.2 4.6-9.2 6-17 6-8.1 0-14-2.4-19.6-7.8-6.5-6.2-8.2-10.4-8.2-20.2 0-9.8 1.7-14 8.2-20.2 10.3-10 27.8-10.7 37.6-1.5l2.7 2.6V166h8v36.5zm-256-13c0 1-1.1 1.5-3.5 1.5h-3.4l-.3 15.2c-.3 13.6-.5 15.3-2 15.6-1.7.3-1.8-.9-1.8-15.2V191h-4c-2.9 0-4-.4-4-1.5 0-1.2 1.7-1.5 9.5-1.5s9.5.3 9.5 1.5zm6 4.1c0 5.5 0 5.5 2.2 4 4.2-3 12.4-1.1 14.8 3.3.5 1.1 1 6.3 1 11.5 0 7.9-.3 9.6-1.5 9.6s-1.5-1.6-1.5-8c0-8.9-1.1-12.3-4.7-13.9-6.6-3-10.3 1.9-10.3 13.9 0 6.4-.3 8-1.5 8-1.3 0-1.5-2.6-1.5-17s.2-17 1.5-17c1.2 0 1.5 1.3 1.5 5.6zm41.9 4.2c3.7 2 7.1 7.2 7.1 10.9 0 2.3-.2 2.3-11 2.3-12.3 0-13.4.8-7.9 5.4 4.2 3.5 8.2 3.4 12.1-.4 3-3 5.8-3.9 5.8-1.9 0 .6-1.5 2.6-3.4 4.5-3 3-4 3.4-8.5 3.4-4.4 0-5.6-.5-8.7-3.3-11.3-10.3 1.1-28.1 14.5-20.9zM412.5 215c-.3.5-1.1 1-1.6 1-.6 0-.7-.5-.4-1 .3-.6 1.1-1 1.6-1 .6 0 .7.4.4 1zm-1.1 3.2c-.3.4-1.1.5-1.9.1-1.1-.3-1.3-.1-.9 1 .4 1.2.1 1.4-1.6 1-1.5-.4-2.6 0-3.2 1.2-.9 1.4-1.2 1.5-2 .4-.7-1.1-.8-.9-.6.5.2 1-.3 2.1-.9 2.3-.7.3-1.4-.4-1.4-1.4-.1-1.6-.2-1.6-.6-.1-.5 2.1-1.9 2.3-2.7.5-.3-.6-.4-.3-.3.7.1 1-.4 2.1-1 2.3-.7.3-1.3 0-1.3-.6s-.5-1.1-1.2-1.1c-.9 0-.9.3-.1 1.1.6.6.9 1.8.6 2.5-.3.9.2 1.4 1.3 1.4 1.6 0 1.7.2.4 1-1.1.7-1.8.3-2.8-1.5-1.2-2.5-4.2-3.5-4.2-1.5 0 .5-.9 1-2.1 1-1.1 0-1.8.4-1.4.9.3.6-.4.9-1.5.8-1.1-.1-1.9-.4-1.7-.7.2-.3 1-2 1.7-3.8 1.4-3.2 3-4.3 3-2 0 .6.7.3 1.5-.8 1-1.3 1.4-1.4 1.5-.5 0 .9.4 1 1.3.3.6-.5 4.5-2 8.4-3.2 4-1.3 8.1-2.8 9-3.5 1.2-.9 2.2-1 3.4-.2 1 .6 1.6 1.4 1.3 1.9zm-30 8.3c-.4.8-.8 1.5-1 1.5-.2 0-.4-.7-.4-1.5s.4-1.5 1-1.5c.5 0 .7.7.4 1.5zm17.6-.5c0 .5-.5 1-1.1 1-.5 0-.7-.5-.4-1 .3-.6.8-1 1.1-1 .2 0 .4.4.4 1zm-250.3 4.2c-.3.7-.5.2-.5-1.2s.2-1.9.5-1.3c.2.7.2 1.9 0 2.5zm4.1-.1c-.3.8-.7.3-1.1-1-.4-1.7-.3-2.1.5-1.3.5.5.8 1.6.6 2.3zm2.9.1c-.3.7-.5.2-.5-1.2s.2-1.9.5-1.3c.2.7.2 1.9 0 2.5zM403 228c0 .5-.5 1-1.1 1-.5 0-.7-.5-.4-1 .3-.6.8-1 1.1-1 .2 0 .4.4.4 1zm-257.3 2.2c-.3.8-.6.5-.6-.6-.1-1.1.2-1.7.5-1.3.3.3.4 1.2.1 1.9zm108.1-1.1c-1 .5-1.5 1.7-1.2 2.7.5 1.4.3 1.4-.6-.2-1-1.5-.9-2 .1-2.7.8-.5 1.9-.9 2.4-.9.6.1.2.5-.7 1.1zm136.2.5c0 1-.6 1.4-1.4 1.1-1-.4-1.6.2-1.9 1.6-.3 2-.4 2-1.1.4-.6-1.3-.3-2.2 1-3.2 2.5-1.9 3.4-1.9 3.4.1zm6.7-1c-.3.3-1.2.4-1.9.1-.8-.3-.5-.6.6-.6 1.1-.1 1.7.2 1.3.5zm-237 2.6c-.3.8-.6.5-.6-.6-.1-1.1.2-1.7.5-1.3.3.3.4 1.2.1 1.9zm3 0c-.3.8-.6.5-.6-.6-.1-1.1.2-1.7.5-1.3.3.3.4 1.2.1 1.9zm-40.7-.8c0 .2-1.3.6-2.9.8-1.7.2-2.8.1-2.5-.4.5-.8 5.4-1.2 5.4-.4zm45 .6c0 .5-.5 1-1.1 1-.5 0-.7-.5-.4-1 .3-.6.8-1 1.1-1 .2 0 .4.4.4 1zm2.7 1.2c-.3.8-.6.5-.6-.6-.1-1.1.2-1.7.5-1.3.3.3.4 1.2.1 1.9zM250 231c0 .5-.5 1-1.1 1-.5 0-.7-.5-.4-1 .3-.6.8-1 1.1-1 .2 0 .4.4.4 1zm6 0c0 .5-.4 1-1 1-.5 0-1-.5-1-1 0-.6.5-1 1-1 .6 0 1 .4 1 1zm1.4 2.4c-1 .8-2.1 1.2-2.3 1-.3-.2.4-1.1 1.5-1.8 1-.8 2.1-1.2 2.3-1 .3.2-.4 1.1-1.5 1.8zm-9.4 1.8c0 1.9-1.6.5-1.7-1.4-.2-1.8 0-2 .7-.8.5.8 1 1.8 1 2.2zm136-1.6c0 .8-.5 1.2-1 .9-.6-.4-.8-1.1-.5-1.6.9-1.4 1.5-1.1 1.5.7zm-133.3.1c-.4.3-.2 1.2.4 2 .9.9.8 1.3 0 1.3-.6 0-1.1-.2-1.1-.4s-.3-1.1-.6-2c-.4-1-.1-1.6.7-1.6.7 0 .9.3.6.7zm11.3.4c0 .5-.4.8-.9.5-.5-.4-1.1 0-1.4.6-.2.7-.8.9-1.3.5s-.2-1.2.6-1.7c2-1.3 3-1.2 3 .1zm129.7-.5c-.3.3-1.2.4-1.9.1-.8-.3-.5-.6.6-.6 1.1-.1 1.7.2 1.3.5zm7.3.4c0 .5-.2 1-.4 1-.3 0-.8-.5-1.1-1-.3-.6-.1-1 .4-1 .6 0 1.1.4 1.1 1zm-256 1.4c0 .3-.4.8-1 1.1-.5.3-1 .1-1-.4 0-.6.5-1.1 1-1.1.6 0 1 .2 1 .4zm247 0c0 .2-.7.6-1.5 1-.8.3-1.5.1-1.5-.4 0-.6.7-1 1.5-1s1.5.2 1.5.4zM146 237c0 .5-.4 1-1 1-.5 0-1-.5-1-1 0-.6.5-1 1-1 .6 0 1 .4 1 1zm251 0c0 .5-.2 1-.4 1-.3 0-.8-.5-1.1-1-.3-.6-.1-1 .4-1 .6 0 1.1.4 1.1 1zm-248 1c0 .5-.5 1-1.1 1-.5 0-.7-.5-.4-1 .3-.6.8-1 1.1-1 .2 0 .4.4.4 1zm109 1c0 .5-.2 1-.4 1-.3 0-.8-.5-1.1-1-.3-.6-.1-1 .4-1 .6 0 1.1.4 1.1 1zm129.7-.4c-.3.3-1.2.4-1.9.1-.8-.3-.5-.6.6-.6 1.1-.1 1.7.2 1.3.5zm-269.5 5.1c.8 2.7 4.8 16.8 8.8 31.5 4.1 14.7 7.7 26.2 8.1 25.5.3-.7 4.3-14.8 8.9-31.5l8.4-30.2h3.7c3.5 0 3.9.3 4.8 3.7 6.6 24.5 16.5 59.2 16.8 58.9.2-.1 3.5-11.7 7.4-25.7 3.9-14 7.2-25.5 7.4-25.7.2-.2 1.2.1 2.2.7 4.9 2.8 5.1 1.1-3.8 32.5l-8.4 29.6h-10l-8-29c-4.3-16-8.1-29-8.4-29-.4 0-2.8 8.2-5.5 18.3-2.7 10-6.3 23.1-7.9 29l-3 10.8-5-.3-5-.3-10.3-36c-5.7-19.8-10.4-36.3-10.4-36.8 0-.4 1.8-.7 3.9-.7 3.8 0 4 .1 5.3 4.7zm51.7-1.4c-1.2 2.8-4.2 4.7-3.2 2.1.3-.7.9-1.4 1.3-1.4.5 0 1.2-.9 1.5-2.1.4-1.1.9-1.8 1.1-1.6.3.2-.1 1.6-.7 3zm68.8-1.3c.1 1.1-.2 2-.8 2-.5 0-.9-.9-.9-2s.4-2 .8-2 .8.9.9 2zm3.3.6c0 1.4-.4 2.3-.9 2-.7-.5-.8-2.3-.2-4.4.4-1.2 1.1.3 1.1 2.4zm-67.6-.1c-.4.8-1 1.5-1.5 1.5-.4 0-.6-.7-.3-1.5.4-.8 1-1.5 1.5-1.5.4 0 .6.7.3 1.5zm3.6-.5c0 .5-.5 1-1.1 1-.5 0-.7-.5-.4-1 .3-.6.8-1 1.1-1 .2 0 .4.4.4 1zm67.6 1.5c.1.8-.2 1.5-.7 1.5-.5 0-.9-1-.9-2.2 0-2.3 1.2-1.7 1.6.7zm18.9-1.5c.3.5.1 1-.4 1-.6 0-1.1-.5-1.1-1 0-.6.2-1 .4-1 .3 0 .8.4 1.1 1zm101.9-.1c.3.4-.6.6-1.9.3-1.4-.2-2.5-.6-2.5-.8 0-.8 3.9-.4 4.4.5zm-222.4.6c0 .2-1 .9-2.2 1.5-2.2 1.1-2.2 1-.4-.4 2.1-1.7 2.6-1.9 2.6-1.1zm21.8.9c-.7.8-1.5 1.2-1.7 1.1-.5-.6 1-2.5 2-2.5.5 0 .4.6-.3 1.4zm16.2-.8c0 .3-.6 1.2-1.4 2-.8.7-1.6 1.9-1.9 2.6-.2.7-.8 1-1.2.6-.4-.4 0-1.4.9-2.3.9-.9 1.6-2.1 1.6-2.6s.5-.9 1-.9c.6 0 1 .3 1 .6zm3 .4c0 .5-.5 1-1.1 1-.5 0-.7-.5-.4-1 .3-.6.8-1 1.1-1 .2 0 .4.4.4 1zm178.5 1c.2.4-.7.5-2 .2-1.4-.2-2.5-.8-2.5-1.2 0-1 3.8-.1 4.5 1zm-174.5-.4c0 .3-.6 1.2-1.4 2-.8.7-1.6 1.9-1.9 2.6-.2.7-.8 1-1.2.6-.4-.4 0-1.4.9-2.3.9-.9 1.6-2.1 1.6-2.6s.5-.9 1-.9c.6 0 1 .3 1 .6zm2.8 1.1c-.2.9-.8 1.8-1.5 2-.7.3-.9-.3-.6-1.6.6-2.5 2.6-2.8 2.1-.4zm-15.6 0c-.6.2-1 .9-.6 1.4.3.5 0 .9-.5.9-1.2 0-1.4-1.3-.4-2.3.3-.4 1.1-.7 1.7-.6.6 0 .5.3-.2.6zm22.8.8c0 .7-.7 1.6-1.6 1.9-.8.3-1.2.2-.9-.4.3-.6-.3-1-1.4-1-1.2 0-2.1-.4-2.1-.9s1.4-.9 3-.9c1.7.1 3 .7 3 1.3zm5.6-.2c2-.7 1.7 1.2-.3 2.8-1.1 1-1.4 1-.9.1.4-.7.2-1.2-.8-1.2-.8 0-1.6.6-1.9 1.2-.2.7-.7 1.1-.9.8-.3-.3-.2-1.6.3-2.9.7-1.8 1.3-2.1 2.1-1.3.6.6 1.7.8 2.4.5zm22.7 1.2c-.8 2.2-2.2 1.8-1.6-.5.3-1.1.9-1.7 1.4-1.5.4.3.6 1.2.2 2zM271 244c0 .5-.4 1-1 1-.5 0-1-.5-1-1 0-.6.5-1 1-1 .6 0 1 .4 1 1zm20.5 0c-.3.5-1.2 1-1.8 1-.7 0-.6-.4.3-1 1.9-1.2 2.3-1.2 1.5 0zm68.1.6c1.8 1.4 1.8 1.4-.6.3-3.1-1.4-3.6-1.9-2.4-1.9.6 0 1.9.7 3 1.6zm-128.6.1c0 .5-.5 1.5-1 2.3-.8 1.2-1 1.1-1-.8 0-1.2.5-2.2 1-2.2.6 0 1 .3 1 .7zm43 .3c0 .5-.5 1-1.1 1-.5 0-.7-.5-.4-1 .3-.6.8-1 1.1-1 .2 0 .4.4.4 1zm97 0c0 .5-.2 1-.4 1-.3 0-.8-.5-1.1-1-.3-.6-.1-1 .4-1 .6 0 1.1.4 1.1 1zm-162 .7c0 1.4-1.9 3.8-2.5 3.2-.8-.8.5-3.9 1.6-3.9.5 0 .9.3.9.7zm2.6 1.5c-.1 1.3-.6 2.2-.9 2-.7-.2-.7-1 0-3 .8-2 1.3-1.4.9 1zm26.4-1.5c0 1.4-1.9 3.8-2.5 3.2-.8-.8.5-3.9 1.6-3.9.5 0 .9.3.9.7zm56.4.5c-.3.4-.9.8-1.5.8-.5 0-.9-.4-.9-.8 0-.5.7-.9 1.5-.9s1.2.4.9.9zm62.1-.2c1.3.6 1.5.9.5.9-.8 0-2.2-.4-3-.9-1.8-1.2-.2-1.2 2.5 0zm-232 1c.3.5.1 1-.4 1-.6 0-1.1-.5-1.1-1 0-.6.2-1 .4-1 .3 0 .8.4 1.1 1zm58.5-.6c0 .2-.7.9-1.5 1.6-1.3 1.1-1.4 1-.9-.4.5-1.4 2.4-2.3 2.4-1.2zm58 1.6c0 1.1-.4 2-1 2-.5 0-1-.9-1-2s.5-2 1-2c.6 0 1 .9 1 2zm112.6-.4c1.8 1.5 1.8 1.5-.2.5-1.2-.6-2.4-.7-2.8-.4-.3.3-.6.1-.6-.5 0-1.6 1.2-1.5 3.6.4zm-135.3 1.5c-.4 1.5-.9 1.7-1.7.9-.8-.8-.7-1.3.4-2 .8-.5 1.6-1 1.7-1 0 0-.1.9-.4 2.1zm26-.1c-.3 1.1-.9 2-1.4 2-1.1 0-1.1-.3-.3-2.4.9-2.3 2.3-2 1.7.4zm53.2-1c-.3.5-1 1-1.6 1-.5 0-.9-.5-.9-1 0-.6.7-1 1.6-1 .8 0 1.2.4.9 1zm-82.5 1c0 .5-.4 1-1 1-.5 0-1-.5-1-1 0-.6.5-1 1-1 .6 0 1 .4 1 1zm32.7.5c0 .8-.6 1.5-1.3 1.5-.8 0-1.1-.6-.8-1.5.4-.8.9-1.5 1.3-1.5s.8.7.8 1.5zm2.9 2.2c-1.1 1.1-1.7-.4-.9-2.3.7-1.8.8-1.8 1.1-.1.2 1 .1 2.1-.2 2.4zm100.4-2.2c1.7.9 3 1.8 3 2.1 0 .4-5.9-2.3-6.9-3.2-1-.9 1.3-.3 3.9 1.1zm-129 .5c0 .5-.4 1-1 1-.5 0-1-.5-1-1 0-.6.5-1 1-1 .6 0 1 .4 1 1zm3 .6c0 .8-.4 1.2-1 .9-.5-.3-1-1-1-1.6 0-.5.5-.9 1-.9.6 0 1 .7 1 1.6zm30-.9c0 1.4-1.9 3.8-2.5 3.2-.8-.8.5-3.9 1.6-3.9.5 0 .9.3.9.7zm45.5.3c-.3.5-1 1-1.6 1-.5 0-.9-.5-.9-1 0-.6.7-1 1.6-1 .8 0 1.2.4.9 1zm43.6 1.7c-1.2 2-1.4 1.4-.5-1.2.4-.9.9-1.4 1.1-1.1.3.2 0 1.3-.6 2.3zm-86.1-.3c0 1.7-1.4 2.9-2.3 2-.8-.8.3-3.4 1.4-3.4.5 0 .9.6.9 1.4zm29-.4c0 .5-.4 1-1 1-.5 0-1-.5-1-1 0-.6.5-1 1-1 .6 0 1 .4 1 1zm17.1.4c-.9 1.1-.6 1.2 1.6.8 1.6-.2 2.5-.1 2.1.3-.4.5-.3 1.4.3 2.2.9.9.8 1.3 0 1.3-.6 0-1.1-.5-1.1-1 0-.6-.4-1-.9-1-1.3 0-2.1 3.8-.8 4.3.6.2.7.9.3 1.5-1 1.6-2.9 1.5-2-.1.4-.7.3-.9-.2-.4s-.9 1.4-.9 1.9c0 .6-.6 1.3-1.3 1.6-.8.2-1-.3-.6-1.5.5-1.6.4-1.6-.8-.3-1 1.2-3.8 1.6-11.1 1.8-8.3.3-10.1 0-12.1-1.6-2.4-1.8-2.4-1.9-.5-4.3 1.3-1.7 1.9-1.9 1.9-.9 0 .9-.5 2.1-1.2 2.8-.7.7-.9 1.2-.5 1.2.3 0 1.5-1 2.7-2.2 1.5-1.6 2-1.8 2-.7 0 .8-.6 2.1-1.2 2.8-1.1 1.1-.9 1.1.9.2 1.2-.6 2.4-1.6 2.7-2.3.5-1 .7-1 1.2-.1.4 1 1.1 1 2.6.2 2.2-1.2 4-.3 2 1-.8.5.3.8 2.5.7 3.6 0 5.3-1 5.3-3.1 0-.5-.5-.4-1.2.3-1.7 1.7-4.5 1.5-5.2-.4-.3-.8-.2-1.2.4-.9 1.3.8 6.1-.5 5.5-1.5-.3-.5.6-.7 2-.4 1.7.3 2.5 0 2.5-1 0-.8.8-1.7 1.8-1.9.9-.3 1.9-.5 2.1-.6.2 0-.2.5-.8 1.3zm35.2.1c-.3.9-.8 1.4-1 1.1-.3-.3-.2-.9.2-1.5.9-1.6 1.5-1.3.8.4zm9.2-.5c.3.6-.1.7-.9.4-1.8-.7-2.1-1.4-.7-1.4.6 0 1.3.4 1.6 1zM130 252c0 .5-.4 1-1 1-.5 0-1-.5-1-1 0-.6.5-1 1-1 .6 0 1 .4 1 1zm102-.6c0 .2-.7.9-1.5 1.6-1.3 1.1-1.4 1-.9-.4.5-1.4 2.4-2.3 2.4-1.2zm3 .6c0 .5-.4 1-1 1-.5 0-1-.5-1-1 0-.6.5-1 1-1 .6 0 1 .4 1 1zm25.1 2.3c-.8.8-1.1.7-1.1-.4 0-2 1.3-3.4 1.8-1.9.3.7-.1 1.7-.7 2.3zm-21.1-1.9c0 .2-.7.9-1.5 1.6-1.3 1.1-1.4 1-.9-.4.5-1.4 2.4-2.3 2.4-1.2zm3 .2c0 .3-.7 1.2-1.5 2-1.6 1.7-1.8 1.4-.9-1 .6-1.5 2.4-2.3 2.4-1zm23 .9c0 .8-.7 1.5-1.5 1.5-1.6 0-2-1.2-.8-2.3 1.1-1.2 2.3-.8 2.3.8zm66.8 1c-.6 1.4-1.3 2.3-1.5 2.1-.5-.5 1.5-4.6 2.2-4.6.3 0-.1 1.1-.7 2.5zM360 253c0 .5-.2 1-.4 1-.3 0-.8-.5-1.1-1-.3-.6-.1-1 .4-1 .6 0 1.1.4 1.1 1zm-227.5 1c.3.5.1 1-.4 1-.6 0-1.1-.5-1.1-1 0-.6.2-1 .4-1 .3 0 .8.4 1.1 1zm112.5.5c-.7.8-1.7 1.5-2.2 1.5-1.1 0 1.4-2.9 2.6-3 .5 0 .3.7-.4 1.5zm23 0c0 .8-.4 1.5-1 1.5-.5 0-1-.7-1-1.5s.5-1.5 1-1.5c.6 0 1 .7 1 1.5zm3 0c0 .8-.4 1.5-1 1.5-.5 0-.7-.7-.4-1.5.4-.8.8-1.5 1-1.5.2 0 .4.7.4 1.5zm22-.5c0 .5-.2 1-.4 1-.3 0-.8-.5-1.1-1-.3-.6-.1-1 .4-1 .6 0 1.1.4 1.1 1zm35.8 1.5c-.6 1.4-1.3 2.3-1.5 2.1-.5-.5 1.5-4.6 2.2-4.6.3 0-.1 1.1-.7 2.5zm-150.3-.5c.3.5.1 1-.4 1-.6 0-1.1-.5-1.1-1 0-.6.2-1 .4-1 .3 0 .8.4 1.1 1zm69.3.4c-.7.8-1.5 1.2-1.7 1.1-.5-.6 1-2.5 2-2.5.5 0 .4.6-.3 1.4zm26.7 1.5c-.9 1.6-2.5.3-1.8-1.5.4-1 .9-1.2 1.5-.6s.7 1.5.3 2.1zM135 257c0 .5-.2 1-.4 1-.3 0-.8-.5-1.1-1-.3-.6-.1-1 .4-1 .6 0 1.1.4 1.1 1zm101.2 1c2.1.6 5.8 2.6 8.2 4.5l4.5 3.4.3-3.7c.3-3.5.5-3.7 3.8-3.7h3.5l.3 27.2.2 27.3h-8v-8.2l-4 3.5c-10.1 9.2-27.4 8.3-37.7-2-5.6-5.6-7.7-10.5-8.1-19.4-.5-9.9 2-16.1 9-22.4 7.4-6.7 18.3-9.2 28-6.5zm89.3 0c.3.6-.1.7-.9.4-1.8-.7-2.1-1.4-.7-1.4.6 0 1.3.4 1.6 1zm36.6 2.3c9.1 5.3 14.7 13.9 15.1 23.3l.3 4.9-24.7.3c-27.9.3-26.9-.1-22.5 7.7 3.1 5.5 9.7 10.2 15.3 11.1 8.1 1.2 17.6-3.1 20.9-9.7 1.3-2.5 2.1-2.9 5.6-2.9h4.1l-3 5.2c-5.3 9.6-17 15.8-27.1 14.4-23.9-3.2-34-31.7-17.3-48.9 6.5-6.8 11.8-8.8 21.8-8.3 5.5.2 8.2.9 11.5 2.9zM138 259c0 .5-.4 1-1 1-.5 0-1-.5-1-1 0-.6.5-1 1-1 .6 0 1 .4 1 1zm141.7 21.9l9.6 22.3 1.7-3.3c.9-1.9 5.4-12.1 10-22.7l8.3-19.2h3.9c3.3 0 3.9.3 3.4 1.6-.3.9-5.6 13.2-11.7 27.5L293.8 313h-8.3l-11.3-26.3c-6.1-14.4-11.2-26.8-11.2-27.5 0-.9 1.1-1.2 3.6-1l3.6.3 9.5 22.4zM141 260.4c0 .3-.4.8-1 1.1-.5.3-1 .1-1-.4 0-.6.5-1.1 1-1.1.6 0 1 .2 1 .4zm180.3 5c2.9 2.2 2.1 3.6-1.3 2.3-1.6-.6-3-1.7-3-2.4 0-1.7 2-1.6 4.3.1zM176 273c0 .5-.4 1-1 1-.5 0-1-.5-1-1 0-.6.5-1 1-1 .6 0 1 .4 1 1zm4 .4c0 .3-.4.8-1 1.1-.5.3-1 .1-1-.4 0-.6.5-1.1 1-1.1.6 0 1 .2 1 .4zm-22 1c0 .3-.4.8-1 1.1-.5.3-1 .1-1-.4 0-.6.5-1.1 1-1.1.6 0 1 .2 1 .4zm22 7.9c0 .4-.2.7-.5.7H177c-1.1 0-2-.5-2-1 0-.6 1.1-.9 2.5-.7 1.4.2 2.5.6 2.5 1zm15 2.1c0 .3-.4.8-1 1.1-.5.3-1 .1-1-.4 0-.6.5-1.1 1-1.1.6 0 1 .2 1 .4z"/><path d="M208.5 173.7c-12.9 4.6-20.4 15.4-20.5 29.4 0 11.6 7 22.2 17.9 27.3 7.2 3.3 18.9 3 26.3-.7 6.7-3.3 11.2-8 14.6-15.5 2.1-4.7 2.4-6.5 2-13.1-.5-8.9-2.9-14.3-8.9-20.1-8.4-8.1-20.9-11-31.4-7.3zm-9.5 40.8c.7.9.8 1.5.2 1.5-.5 0-1.2-.7-1.6-1.5-.3-.8-.4-1.5-.2-1.5s.9.7 1.6 1.5zm7 0c.7.9.8 1.5.2 1.5-.5 0-1.2-.7-1.6-1.5-.3-.8-.4-1.5-.2-1.5s.9.7 1.6 1.5zm11.6-.2c1.8-.7 1.8-.6.1 1.2-1.6 1.5-2 1.6-2.8.4-.5-.8-.9-1.9-.9-2.4 0-.6.4-.4.8.3.5.8 1.6 1 2.8.5zm-21.6.7c0 .5-.5 1-1.1 1-.5 0-.7-.5-.4-1 .3-.6.8-1 1.1-1 .2 0 .4.4.4 1zm7 0c0 .5-.5 1-1.1 1-.5 0-.7-.5-.4-1 .3-.6.8-1 1.1-1 .2 0 .4.4.4 1zm7 1c0 .5-.2 1-.4 1-.3 0-.8-.5-1.1-1-.3-.6-.1-1 .4-1 .6 0 1.1.4 1.1 1zm3 0c0 .5-.2 1-.4 1-.3 0-.8-.5-1.1-1-.3-.6-.1-1 .4-1 .6 0 1.1.4 1.1 1zm7 1c0 .5-.2 1-.4 1-.3 0-.8-.5-1.1-1-.3-.6-.1-1 .4-1 .6 0 1.1.4 1.1 1zm3.5 0c.3.5.1 1-.4 1-.6 0-1.1-.5-1.1-1 0-.6.2-1 .4-1 .3 0 .8.4 1.1 1zm3.5 1c0 .5-.2 1-.4 1-.3 0-.8-.5-1.1-1-.3-.6-.1-1 .4-1 .6 0 1.1.4 1.1 1zm6.5 1c.3.5.1 1-.4 1-.6 0-1.1-.5-1.1-1 0-.6.2-1 .4-1 .3 0 .8.4 1.1 1zm-16.5 7c0 .5-.2 1-.4 1-.3 0-.8-.5-1.1-1-.3-.6-.1-1 .4-1 .6 0 1.1.4 1.1 1zm3.5 0c.3.5.1 1-.4 1-.6 0-1.1-.5-1.1-1 0-.6.2-1 .4-1 .3 0 .8.4 1.1 1zm3.5 1c0 .5-.2 1-.4 1-.3 0-.8-.5-1.1-1-.3-.6-.1-1 .4-1 .6 0 1.1.4 1.1 1zM283.5 191.1c-9.1 2.1-15.5 10.7-15.5 20.9 0 7.3 1.6 11.4 6.1 15.8 10.1 9.8 27.6 6.7 33.8-6.1 5.9-12.3-1.1-27.9-13.8-30.6-2.9-.6-5.5-1.1-5.9-1-.4.1-2.5.5-4.7 1zM343 191.5c-10.6 3.4-17 15.2-14.1 26.1 2.7 10 10.2 15.8 20.6 15.8 17.4 0 27.2-19 17.4-33.7-5.1-7.7-14.9-11.1-23.9-8.2zM161.5 199.7c-2.6.6-6.5 4.2-6.5 6 0 1 2.2 1.3 9 1.3 5 0 9-.3 9-.6 0-1.9-2.6-4.8-5.5-6-1.9-.8-3.6-1.3-3.7-1.3-.2.1-1.2.3-2.3.6zM301.7 254.7c-.4.3-.7 1.1-.7 1.7 0 .6.5.5 1.2-.2.6-.6.9-1.4.7-1.7-.3-.3-.9-.2-1.2.2zM298.5 256.1c.4 1 .2 2-.4 2.4-.6.3-1.1 1.1-1.1 1.8 0 .6.7.1 1.6-1.2 1.3-1.7 1.4-2.5.5-3.4-.9-.9-1.1-.8-.6.4zM218.5 265.8c-13.6 6.3-16.7 25-6.1 35.7 9 8.9 21.8 8.7 30.7-.5 3.6-3.7 4.9-5.9 5.8-9.9 2.1-9.7-1.1-18.2-8.7-23.5-5.6-3.9-15.4-4.7-21.7-1.8zM241 274c0 .5-.2 1-.4 1-.3 0-.8-.5-1.1-1-.3-.6-.1-1 .4-1 .6 0 1.1.4 1.1 1zm-17 2c0 .5-.5 1-1.1 1-.5 0-.7-.5-.4-1 .3-.6.8-1 1.1-1 .2 0 .4.4.4 1zm3.5 0c.3.5.1 1-.4 1-.6 0-1.1-.5-1.1-1 0-.6.2-1 .4-1 .3 0 .8.4 1.1 1zm-13.5 1c0 .5-.4 1-1 1-.5 0-1-.5-1-1 0-.6.5-1 1-1 .6 0 1 .4 1 1zm3 0c0 .5-.2 1-.4 1-.3 0-.8-.5-1.1-1-.3-.6-.1-1 .4-1 .6 0 1.1.4 1.1 1zm4-.6c0 .3-.4.8-1 1.1-.5.3-1 .1-1-.4 0-.6.5-1.1 1-1.1.6 0 1 .2 1 .4zm-6 7.6c0 .5-.5 1-1.1 1-.5 0-.7-.5-.4-1 .3-.6.8-1 1.1-1 .2 0 .4.4.4 1zm-3 .4c0 .3-.4.8-1 1.1-.5.3-1 .1-1-.4 0-.6.5-1.1 1-1.1.6 0 1 .2 1 .4zM340.5 265.4c-5.6 2.4-12.5 11-12.5 15.6 0 .6 7.3 1 21.1 1h21.1l-.6-2.8c-1.1-4.6-5.9-10.4-10.5-12.9-5.1-2.6-13.7-3.1-18.6-.9zm7.6 3.9c-1 .9-1.1.8-.5-.6.3-1 .9-1.5 1.2-1.2.3.3 0 1.1-.7 1.8zM338 273c0 .5-.7 1-1.6 1-.8 0-1.2-.5-.9-1 .3-.6 1-1 1.6-1 .5 0 .9.4.9 1z"/></svg>